<svg width="120" height="120" viewBox="0 0 120 120" fill="none" xmlns="http://www.w3.org/2000/svg">
<path d="M120 60C120 93.1375 93.1375 120 60 120C26.8625 120 0 93.1375 0 60C0 26.8625 26.8625 0 60 0C93.1375 0 120 26.8625 120 60Z" fill="white"/>
<path d="M114.843 50.2698V84.3723C114.087 86.0687 113.256 87.7267 112.35 89.3362C109.365 94.65 105.596 99.4647 101.198 103.618C90.4514 113.774 75.9531 120 60.0009 120C39.5709 120 21.5277 109.79 10.6952 94.1949C8.55286 91.1169 6.69617 87.8275 5.15625 84.3668V50.2698H114.843Z" fill="#CC7A3B"/>
<path d="M114.843 59.5762V74.4489C113.783 74.9607 112.595 75.25 111.336 75.25H8.66272C7.40662 75.25 6.21643 74.9607 5.15625 74.4489V59.5762H114.843Z" fill="#A35418"/>
<path d="M30.6133 7.92206V36.0663H88.8985V7.92206C88.8985 3.54675 85.3517 0 80.9764 0H38.5353C34.16 0 30.6133 3.54675 30.6133 7.92206ZM79.3477 9.55078V26.5146H40.1641V9.55078H79.3477Z" fill="#A35418"/>
<path d="M111.337 68.3928H8.66278C4.21881 68.3928 0.616211 64.7902 0.616211 60.3462V28.4391C0.616211 23.9952 4.21881 20.3926 8.66278 20.3926H111.337C115.781 20.3926 119.384 23.9952 119.384 28.4391V60.3462C119.384 64.7902 115.781 68.3928 111.337 68.3928Z" fill="#CC7A3B"/>
<path d="M6.24854 60.3462V28.4391C6.24854 23.9952 9.85022 20.3926 14.2951 20.3926H8.66278C4.21881 20.3926 0.616211 23.9952 0.616211 28.4391V60.3462C0.616211 64.7902 4.21881 68.3928 8.66278 68.3928H14.2951C9.85114 68.3928 6.24854 64.7902 6.24854 60.3462Z" fill="#A35418"/>
<path d="M91.5665 68.3926H75.4038V100.148C75.4038 104.611 79.022 108.229 83.4852 108.229C87.9484 108.229 91.5665 104.611 91.5665 100.148V68.3926Z" fill="#A35418"/>
<path d="M72.3423 82.522V98.7534C72.3423 100.425 73.6973 101.78 75.369 101.78H91.6013C93.2731 101.78 94.6281 100.425 94.6281 98.7534V82.522C94.6281 80.8494 93.2731 79.4944 91.6013 79.4944H75.369C73.6973 79.4944 72.3423 80.8494 72.3423 82.522ZM88.9948 96.1478H77.9746V85.1267H88.9948V96.1478Z" fill="#FFE152"/>
<path d="M83.4852 91.9639C82.4653 91.9639 81.6377 91.1371 81.6377 90.1172V82.5962H85.3318V90.1172C85.3318 91.1371 84.5051 91.9639 83.4852 91.9639Z" fill="#FFE152"/>
<path d="M44.5963 68.3926H28.4336V100.148C28.4336 104.611 32.0518 108.229 36.515 108.229C40.9781 108.229 44.5963 104.611 44.5963 100.148V68.3926Z" fill="#A35418"/>
<path d="M25.3721 82.522V98.7534C25.3721 100.425 26.7271 101.78 28.3997 101.78H44.6311C46.3029 101.78 47.6578 100.425 47.6578 98.7534V82.522C47.6578 80.8494 46.3029 79.4944 44.6311 79.4944H28.3997C26.7271 79.4944 25.3721 80.8494 25.3721 82.522ZM42.0255 96.1478H31.0053V85.1267H42.0255V96.1478Z" fill="#FFE152"/>
<path d="M36.5148 91.9639C35.4949 91.9639 34.6682 91.1371 34.6682 90.1172V82.5962H38.3615V90.1172C38.3624 91.1371 37.5356 91.9639 36.5148 91.9639Z" fill="#FFE152"/>
<path d="M10.6952 68.8823V94.1948C8.55286 91.1168 6.69617 87.8273 5.15625 84.3666V68.8823H10.6952Z" fill="#A35418"/>
<path d="M60.0001 29.1074L75.2839 44.3922L60.0001 59.676L44.7153 44.3922L60.0001 29.1074Z" fill="#FFE152"/>
<path d="M54.0903 38.4824H65.9098V50.3028H54.0903V38.4824Z" fill="#E8C934"/>
</svg>
