<svg width="150" height="150" viewBox="0 0 150 150" fill="none" xmlns="http://www.w3.org/2000/svg">
<path d="M150 75C150 116.422 116.422 150 75 150C33.5781 150 0 116.422 0 75C0 33.5781 33.5781 0 75 0C116.422 0 150 33.5781 150 75Z" fill="#F5F5FC"/>
<path d="M150 48.7255C150 66.909 140.039 82.766 125.275 91.1362V91.1385C118.191 95.1553 110 97.451 101.275 97.451C94.9105 97.451 88.8303 96.2299 83.2593 94.0098H83.2536C65.2623 86.8469 52.5491 69.2722 52.5491 48.7255C52.5491 35.0693 58.167 22.7234 67.2181 13.8794C76.0014 5.29289 88.02 0 101.275 0C106.84 0 112.188 0.933838 117.168 2.65045C136.274 9.24225 150 27.38 150 48.7255Z" fill="#66BAED"/>
<path d="M111.557 96.3615C108.242 97.0745 104.802 97.451 101.275 97.451C94.9105 97.451 88.8303 96.2299 83.2593 94.0098H83.2536C65.2623 86.8469 52.5491 69.2722 52.5491 48.7255C52.5491 35.0693 58.167 22.7234 67.2181 13.8794C76.0014 5.29289 88.02 0 101.275 0C104.802 0 108.238 0.373078 111.551 1.08948C102.413 3.05214 94.2273 7.57942 87.7843 13.8794C78.732 22.7234 73.1141 35.0693 73.1141 48.7255C73.1141 69.2722 85.8273 86.8469 103.819 94.0098H103.824C106.308 94.9986 108.891 95.7916 111.557 96.3615Z" fill="#2BA1CF"/>
<path d="M150 48.7254C150 66.909 140.039 82.7659 125.275 91.1361C116.782 73.8395 97.0322 89.1494 94.7354 67.5704C92.4431 45.9892 118.383 53.5652 125.961 45.9892C133.537 38.412 125.961 26.7024 119.531 33.1317C113.103 39.5599 103.46 37.7231 105.756 31.295C108.052 24.8668 119.072 22.1111 111.144 19.3565C103.212 16.6042 111.144 8.67227 117.162 2.65382L117.168 2.65039C129.839 7.02203 140.143 16.4726 145.644 28.5678C139.736 28.5678 134.226 38.6421 139.736 44.1524C142.726 47.1427 146.443 47.9598 149.997 48.2265C150 48.3913 150 48.5607 150 48.7254Z" fill="#3FB777"/>
<path d="M83.2593 94.0098H83.2536C65.2623 86.8469 52.5491 69.2722 52.5491 48.7255C52.5491 35.0693 58.167 22.7234 67.2181 13.8794C80.5047 17.0631 82.8004 26.2436 74.0754 29.4582C65.4763 32.626 64.9075 38.4705 73.6806 41.2743C73.8122 41.3177 73.9404 41.3567 74.0754 41.3967C80.2804 43.2587 77.8897 49.1055 73.2766 52.7023C71.0668 54.4258 68.3419 55.632 65.8105 55.632C58.0045 55.632 64.4326 71.4729 73.8465 71.4729C83.2593 71.4729 83.2593 94.0098 83.2593 94.0098Z" fill="#FFE152"/>
<path d="M83.2593 94.0098H83.2536C65.2623 86.8469 52.5491 69.2722 52.5491 48.7255C52.5491 35.0693 58.167 22.7234 67.2181 13.8794C80.5047 17.0631 82.8004 26.2436 74.0754 29.4582C65.4763 32.626 64.9075 38.4705 73.6806 41.2743C73.3075 43.705 73.1141 46.1906 73.1141 48.7255C73.1141 50.0633 73.169 51.3885 73.2766 52.7023C71.0668 54.4258 68.3419 55.632 65.8105 55.632C58.0045 55.632 64.4326 71.4729 73.8465 71.4729C83.2593 71.4729 83.2593 94.0098 83.2593 94.0098Z" fill="#2DA365"/>
<path d="M135.83 10.6991C135.56 -1.92834 116.593 -1.92834 116.323 10.6991C116.321 10.8375 116.32 10.9749 116.32 11.1133C116.32 18.2568 120.255 24.48 126.077 27.7347C131.899 24.48 135.834 18.2568 135.834 11.1133C135.834 10.9749 135.833 10.8375 135.83 10.6991Z" fill="#F74F4F"/>
<path d="M131.049 10.7894C131.049 12.3836 130.299 13.8015 129.132 14.7113C128.289 15.3694 127.229 15.7607 126.077 15.7607C124.926 15.7607 123.865 15.3694 123.022 14.7113C121.856 13.8015 121.106 12.3836 121.106 10.7894C121.106 8.04399 123.331 5.81812 126.077 5.81812C128.823 5.81812 131.049 8.04399 131.049 10.7894Z" fill="#DDE8ED"/>
<path d="M115.218 50.0874C114.948 37.4588 95.9817 37.4588 95.7116 50.0874C95.7082 50.2247 95.707 50.3632 95.707 50.5017C95.707 57.6451 99.6438 63.8684 105.465 67.1231C111.286 63.8684 115.223 57.6451 115.223 50.5017C115.223 50.3632 115.22 50.2247 115.218 50.0874Z" fill="#F74F4F"/>
<path d="M110.437 50.1766C110.437 51.7708 109.686 53.1899 108.52 54.0997C107.678 54.7577 106.617 55.1491 105.464 55.1491C104.313 55.1491 103.252 54.7566 102.41 54.0997C101.243 53.1899 100.493 51.7708 100.493 50.1766C100.493 47.4312 102.719 45.2053 105.464 45.2053C108.211 45.2053 110.437 47.4312 110.437 50.1766Z" fill="#DDE8ED"/>
<path d="M141.34 60.9032C141.07 48.2758 122.104 48.2758 121.834 60.9032C121.83 61.0416 121.829 61.179 121.829 61.3175C121.829 68.4609 125.766 74.6842 131.587 77.9389C137.408 74.6842 141.345 68.4609 141.345 61.3175C141.345 61.179 141.344 61.0416 141.34 60.9032Z" fill="#F74F4F"/>
<path d="M136.559 60.9935C136.559 62.5877 135.809 64.0056 134.642 64.9154C133.8 65.5735 132.739 65.9648 131.588 65.9648C130.435 65.9648 129.376 65.5735 128.532 64.9154C127.366 64.0056 126.615 62.5877 126.615 60.9935C126.615 58.2481 128.841 56.0222 131.588 56.0222C134.333 56.0222 136.559 58.2481 136.559 60.9935Z" fill="#DDE8ED"/>
<path d="M87.4603 131.712V140.281C79.9759 144.53 71.6858 147.523 62.8784 148.984C62.836 148.989 62.796 148.995 62.7525 149.002C49.3972 146.809 37.231 141.092 27.2426 132.829C22.9786 129.306 19.1116 125.32 15.7173 120.946C19.02 113.069 25.8373 107.026 34.2098 104.789C34.6447 104.672 35.083 104.565 35.5259 104.47C36.708 104.213 37.92 104.036 39.1536 103.934C39.9067 103.873 40.6665 103.843 41.4344 103.843H59.5848C61.6138 103.843 63.5914 104.057 65.4957 104.47C65.6055 104.491 65.7165 104.515 65.823 104.541C66.1445 104.614 66.4661 104.694 66.782 104.78C66.7911 104.782 66.7968 104.782 66.806 104.786C69.944 105.624 72.8645 106.999 75.46 108.801C82.7121 113.834 87.4603 122.219 87.4603 131.712Z" fill="#A35418"/>
<path d="M87.4603 131.712V148.968C83.4068 149.648 79.2469 150 75.0012 150C56.8543 150 40.2134 143.556 27.2427 132.829V131.712C27.2427 118.818 35.9974 107.969 47.8913 104.789C48.325 104.672 48.7633 104.565 49.2073 104.47C50.3884 104.213 51.6014 104.036 52.8351 103.934C53.5881 103.873 54.3469 103.843 55.1148 103.843H59.5848C61.6139 103.843 63.5914 104.057 65.4957 104.47C65.6056 104.491 65.7166 104.515 65.823 104.541C66.1446 104.614 66.4662 104.694 66.782 104.78C66.7912 104.782 66.7969 104.782 66.806 104.786C69.944 105.624 72.8645 106.999 75.4601 108.801C82.7122 113.834 87.4603 122.219 87.4603 131.712Z" fill="#CC7A3B"/>
<path d="M66.8736 104.47L66.8061 104.786L57.5272 147.949C52.216 146.685 47.1257 144.854 42.3226 142.521L34.2099 104.789L34.1423 104.47H66.8736Z" fill="#F2F0EC"/>
<path d="M50.5074 115.252L37.9589 122.225L34.1423 104.471L41.9392 99.8783" fill="#D8D5D0"/>
<path d="M50.5073 115.252L63.0546 122.225L66.8724 104.471L59.0755 99.8783" fill="#D8D5D0"/>
<path d="M13.0427 97.1226V55.0896C13.0427 50.8187 13.7557 46.6336 15.161 42.6522C20.4219 27.681 34.6274 17.6194 50.5084 17.6194C52.4768 17.6194 54.4394 17.7727 56.346 18.0737C65.0721 19.4367 73.0773 23.8907 78.8817 30.6153C84.748 37.4097 87.9775 46.1014 87.9775 55.0896V97.1226" fill="#3D4159"/>
<path d="M28.4547 56.7307C28.4547 71.5989 37.1613 88.7993 41.9427 97.1238H13.0417V55.0896C13.0417 50.8187 13.7547 46.6347 15.16 42.6522C20.3889 27.768 34.4639 17.7361 50.2362 17.6228C38.7166 17.9112 28.4547 36.3911 28.4547 56.7307Z" fill="#2A2F4F"/>
<path d="M60.4546 93.1057V105.31C60.4546 109.777 57.5089 113.553 53.452 114.807C52.5227 115.096 51.5328 115.252 50.5085 115.252C45.0177 115.252 40.5659 110.801 40.5659 105.31V93.1057H60.4546Z" fill="#EAB599"/>
<path d="M60.4545 104.536V105.31C60.4545 109.777 57.5088 113.554 53.4518 114.808C49.7909 113.682 47.0374 110.5 46.5293 106.604C47.1931 106.645 47.8614 106.666 48.532 106.666C50.4134 106.666 52.2582 106.516 54.0549 106.221C56.2682 105.865 58.4071 105.296 60.4545 104.536Z" fill="#F6CAAE"/>
<path d="M23.2328 73.1049C23.2328 77.7088 19.8693 81.5254 15.4657 82.2338C14.985 82.3128 14.4895 82.3528 13.9848 82.3528C8.87614 82.3528 4.73682 78.2135 4.73682 73.1049C4.73682 67.9974 8.87614 63.858 13.9848 63.858C14.4895 63.858 14.985 63.8981 15.4657 63.9771C19.8693 64.6854 23.2328 68.502 23.2328 73.1049Z" fill="#F6CAAE"/>
<path d="M23.2327 73.1049C23.2327 77.7088 19.8693 81.5254 15.4656 82.2338C14.6656 79.3259 14.2388 76.2646 14.2388 73.1049C14.2388 69.9463 14.6656 66.885 15.4656 63.9771C19.8693 64.6854 23.2327 68.502 23.2327 73.1049Z" fill="#EAB599"/>
<path d="M17.2898 73.1049C17.2898 74.9313 15.8101 76.4111 13.9847 76.4111C12.1594 76.4111 10.6797 74.9313 10.6797 73.1049C10.6797 71.2795 12.1594 69.7998 13.9847 69.7998C15.8101 69.7998 17.2898 71.2795 17.2898 73.1049Z" fill="#EAB599"/>
<path d="M74.2551 61.2968V93.085C69.3422 97.7748 63.0422 101.023 56.0315 102.152C55.9766 102.161 55.9182 102.171 55.8633 102.18C54.1215 102.459 52.334 102.596 50.5086 102.596C31.508 102.596 16.1042 87.1925 16.1042 68.1907V55.0895C16.1042 53.4118 16.2233 51.7616 16.4556 50.1479C24.6415 56.0348 36.3786 55.4534 43.8573 48.3856C46.3338 46.0464 48.0539 43.2609 49.0278 40.306C49.5691 45.4799 51.9357 50.5153 56.13 54.4795C61.1219 59.1945 67.7194 61.4684 74.2551 61.2968Z" fill="#EAB599"/>
<path d="M74.255 61.2969V93.0852C69.3421 97.7749 63.0421 101.023 56.0314 102.152C55.9765 102.161 55.9182 102.171 55.8632 102.18C39.4055 99.6083 26.8181 85.3673 26.8181 68.1908V55.0896C26.8181 54.7406 26.8238 54.3938 26.8364 54.0482C32.9041 54.6696 39.2041 52.7836 43.8572 48.3857C46.3337 46.0465 48.0538 43.261 49.0277 40.3062C49.569 45.48 51.9356 50.5154 56.1299 54.4797C61.1218 59.1946 67.7193 61.4686 74.255 61.2969Z" fill="#F6CAAE"/>
<path d="M68.9872 65.2851C68.9872 62.1299 66.4294 59.571 63.2731 59.571C60.118 59.571 57.5591 62.1288 57.5591 65.2851" fill="#EAB599"/>
<path d="M43.4647 65.2851C43.4647 62.1299 40.9069 59.571 37.7507 59.571C34.5944 59.571 32.0366 62.1288 32.0366 65.2851" fill="#EAB599"/>
<path d="M41.6532 67.7181C41.6532 69.8742 39.9057 71.6217 37.7507 71.6217C35.5947 71.6217 33.8472 69.8742 33.8472 67.7181C33.8472 65.5632 35.5947 63.8157 37.7507 63.8157C39.9057 63.8157 41.6532 65.5632 41.6532 67.7181Z" fill="#3D4159"/>
<path d="M67.1769 67.7181C67.1769 69.8742 65.4294 71.6217 63.2733 71.6217C61.1184 71.6217 59.3708 69.8742 59.3708 67.7181C59.3708 65.5632 61.1184 63.8157 63.2733 63.8157C65.4294 63.8157 67.1769 65.5632 67.1769 67.7181Z" fill="#3D4159"/>
<path d="M54.4154 77.5452H46.6094C45.679 77.5452 44.9248 76.7922 44.9248 75.8618C44.9248 74.9314 45.679 74.1783 46.6094 74.1783H54.4154C55.3447 74.1783 56.0988 74.9314 56.0988 75.8618C56.0988 76.7922 55.3447 77.5452 54.4154 77.5452Z" fill="#EAB599"/>
<path d="M50.5119 88.1974C47.6303 88.1974 44.7498 87.4753 42.1234 86.0322C41.3829 85.6248 41.1128 84.6944 41.5191 83.9539C41.9265 83.2124 42.8581 82.9423 43.5985 83.3497C47.9278 85.7301 53.0971 85.7289 57.4252 83.3497C58.1657 82.9423 59.0961 83.2124 59.5035 83.9539C59.9109 84.6944 59.6408 85.6248 58.9004 86.0322C56.274 87.4753 53.3924 88.1974 50.5119 88.1974Z" fill="#EAB599"/>
<path d="M40.8576 67.0292C40.8576 67.9527 40.1092 68.7023 39.1857 68.7023C38.2621 68.7023 37.5137 67.9527 37.5137 67.0292C37.5137 66.1056 38.2621 65.3572 39.1857 65.3572C40.1092 65.3572 40.8576 66.1056 40.8576 67.0292Z" fill="white"/>
<path d="M66.5726 67.0292C66.5726 67.9527 65.8231 68.7023 64.8995 68.7023C63.976 68.7023 63.2275 67.9527 63.2275 67.0292C63.2275 66.1056 63.976 65.3572 64.8995 65.3572C65.8231 65.3572 66.5726 66.1056 66.5726 67.0292Z" fill="white"/>
<path d="M73.9288 77.2248C73.9288 79.5914 72.0096 81.5106 69.643 81.5106C67.2764 81.5106 65.3572 79.5914 65.3572 77.2248C65.3572 74.8581 67.2764 72.939 69.643 72.939C72.0096 72.939 73.9288 74.8581 73.9288 77.2248Z" fill="#EAB599"/>
<path d="M35.6632 77.2248C35.6632 79.5914 33.7451 81.5106 31.3774 81.5106C29.0107 81.5106 27.0916 79.5914 27.0916 77.2248C27.0916 74.8581 29.0107 72.939 31.3774 72.939C33.7451 72.939 35.6632 74.8581 35.6632 77.2248Z" fill="#EAB599"/>
<path d="M111.326 72.7798L73.6909 149.987C71.4776 149.951 69.2861 149.816 67.1243 149.589L108.001 71.1033C108.473 70.1992 109.581 69.8444 110.489 70.3011C111.399 70.76 111.772 71.8655 111.326 72.7798Z" fill="#3D4159"/>
</svg>
