<svg width="100" height="100" viewBox="0 0 100 100" fill="none" xmlns="http://www.w3.org/2000/svg">
<path d="M100 50.0004C100 77.6144 77.6144 100 50.0004 100C22.3856 100 0 77.6144 0 50.0004C0 22.3856 22.3856 0 50.0004 0C77.6144 0 100 22.3856 100 50.0004Z" fill="#F5F5FC"/>
<path d="M100.001 31.2228C100.001 47.3156 86.9551 60.3612 70.8623 60.3612C54.7695 60.3612 41.7231 47.3156 41.7231 31.2228C41.7231 15.13 54.7695 2.08435 70.8623 2.08435C86.9551 2.08435 100.001 15.13 100.001 31.2228Z" fill="#F74F4F"/>
<path d="M93.4666 31.2228C93.4666 43.7069 83.3469 53.8266 70.8628 53.8266C58.3788 53.8266 48.2583 43.7069 48.2583 31.2228C48.2583 18.7388 58.3788 8.61829 70.8628 8.61829C83.3469 8.61829 93.4666 18.7388 93.4666 31.2228Z" fill="#F2F0EC"/>
<path d="M86.8456 31.2226C86.8456 40.0499 79.6899 47.2063 70.8626 47.2063C62.0353 47.2063 54.8789 40.0499 54.8789 31.2226C54.8789 22.3953 62.0353 15.2389 70.8626 15.2389C79.6899 15.2389 86.8456 22.3953 86.8456 31.2226Z" fill="#F74F4F"/>
<path d="M79.0186 31.2228C79.0186 35.728 75.3672 39.3803 70.862 39.3803C66.3568 39.3803 62.7046 35.728 62.7046 31.2228C62.7046 26.7176 66.3568 23.0654 70.862 23.0654C75.3672 23.0654 79.0186 26.7176 79.0186 31.2228Z" fill="#F2F0EC"/>
<path d="M73.9367 31.223C73.9367 32.9213 72.5604 34.2977 70.8621 34.2977C69.1637 34.2977 67.7866 32.9213 67.7866 31.223C67.7866 29.5247 69.1637 28.1476 70.8621 28.1476C72.5604 28.1476 73.9367 29.5247 73.9367 31.223Z" fill="#F74F4F"/>
<path d="M98.2596 22.0857L92.8649 18.3472L92.2476 11.8126L83.0519 17.1944L83.457 21.4883L69.8315 29.4611L71.893 32.9844L85.5185 25.0108L89.0631 27.4675L98.2596 22.0857Z" fill="#DD3033"/>
<path d="M98.2596 22.0857L92.8649 18.3472L92.2476 11.8126L83.0519 17.1944L83.457 21.4883L69.8315 29.4611L71.893 32.9844L85.5185 25.0108L89.0631 27.4675L98.2596 22.0857Z" fill="#DD3033"/>
<path d="M92.6914 25.3453L89.0628 27.4678L85.6219 25.082C85.065 23.7408 84.328 22.4941 83.4445 21.3673V21.3657L83.0508 17.194L86.6748 15.0737C89.5183 17.8554 91.6301 21.3863 92.6914 25.3453Z" fill="#D8D5D0"/>
<path d="M77.6597 13.1219L85.1938 5.58777L87.4444 11.7531L79.9104 19.288L77.6597 13.1219Z" fill="#E8C934"/>
<path d="M90.3313 14.6396L72.7278 32.2438C71.9306 33.0404 70.6389 33.0404 69.8416 32.2438C69.0443 31.4466 69.0443 30.1541 69.8416 29.3576L87.445 11.7534L90.3313 14.6396Z" fill="#3D4159"/>
<path d="M87.5194 22.9819L95.0534 15.4471L88.8881 13.1964L81.354 20.7305L87.5194 22.9819Z" fill="#FFE152"/>
<path d="M58.3063 87.8079V93.5201C53.3166 96.3529 47.7899 98.3488 41.919 99.3223C41.89 99.3261 41.8633 99.3307 41.8351 99.3345C32.9307 97.8734 24.8206 94.061 18.1616 88.5525C15.3189 86.2034 12.7409 83.5469 10.478 80.6301C12.6799 75.3795 17.2248 71.3504 22.8065 69.8589C23.0964 69.781 23.3878 69.7101 23.6838 69.6468C24.472 69.4751 25.2799 69.3568 26.1024 69.2897C26.6044 69.2485 27.1102 69.2279 27.6229 69.2279H39.7225C41.0759 69.2279 42.3943 69.3713 43.6639 69.6468C43.7371 69.6613 43.8103 69.6773 43.8821 69.6933C44.0964 69.7429 44.3108 69.7955 44.5206 69.8528C44.5267 69.855 44.5313 69.855 44.5374 69.8566C46.6287 70.4158 48.5757 71.3321 50.3068 72.5345C55.1416 75.8892 58.3063 81.4793 58.3063 87.8079Z" fill="#713775"/>
<path d="M58.3068 87.8079V99.3116C55.6052 99.7648 52.8319 99.9998 50.0006 99.9998C37.9026 99.9998 26.8093 95.7036 18.1621 88.5525V87.8079C18.1621 79.2118 23.9986 71.9791 31.9272 69.8589C32.2171 69.781 32.5093 69.7101 32.8053 69.6468C33.5927 69.4751 34.4006 69.3568 35.2231 69.2897C35.7251 69.2485 36.2317 69.2279 36.7436 69.2279H39.7229C41.0764 69.2279 42.3948 69.3713 43.6643 69.6468C43.7376 69.6613 43.8108 69.6773 43.8825 69.6933C44.0969 69.7429 44.3113 69.7955 44.5211 69.8528C44.5272 69.855 44.5318 69.855 44.5379 69.8566C46.6291 70.4158 48.5762 71.3321 50.3073 72.5345C55.1421 75.8892 58.3068 81.4793 58.3068 87.8079Z" fill="#854F89"/>
<path d="M44.582 69.647L44.5377 69.8568L38.3517 98.6328C34.8109 97.7897 31.4173 96.569 28.2153 95.0141L22.8067 69.8591L22.7617 69.647H44.582Z" fill="#F2F0EC"/>
<path d="M33.6711 76.8349L25.3061 81.4843L22.7617 69.6472L27.9589 66.5863" fill="#D8D5D0"/>
<path d="M33.6709 76.8349L42.0366 81.4843L44.581 69.6472L39.3831 66.5863" fill="#D8D5D0"/>
<path d="M8.69482 64.7488V36.7258C8.69482 33.8785 9.17014 31.0892 10.107 28.4341C13.6135 18.454 23.0847 11.7462 33.6721 11.7462C34.9836 11.7462 36.2921 11.8485 37.5639 12.0491C43.3814 12.9578 48.7174 15.9272 52.5871 20.4095C56.4979 24.9398 58.6517 30.7344 58.6517 36.7258V64.7488" fill="#3D4159"/>
<path d="M18.9702 37.82C18.9702 47.7322 24.7747 59.2 27.9622 64.7489H8.69482V36.7267C8.69482 33.8794 9.17014 31.0901 10.107 28.4343C13.5929 18.5122 22.9764 11.8242 33.4905 11.7487C25.8115 11.9409 18.9702 24.261 18.9702 37.82Z" fill="#2A2F4F"/>
<path d="M40.3037 62.0699V70.206C40.3037 73.1845 38.3398 75.7023 35.6344 76.5384C35.0157 76.7299 34.3557 76.8345 33.6729 76.8345C30.0123 76.8345 27.0444 73.8674 27.0444 70.206V62.0699H40.3037Z" fill="#EAB599"/>
<path d="M40.303 69.6912V70.2062C40.303 73.1847 38.3392 75.7024 35.6338 76.5386C33.1932 75.7879 31.3583 73.6661 31.0195 71.069C31.462 71.0965 31.9076 71.1102 32.3547 71.1102C33.609 71.1102 34.8388 71.0103 36.0367 70.8142C37.5122 70.5769 38.9381 70.197 40.303 69.6912Z" fill="#F6CAAE"/>
<path d="M15.4884 48.7368C15.4884 51.8053 13.2461 54.3505 10.3103 54.8228C9.98989 54.8747 9.65953 54.9014 9.32307 54.9014C5.91729 54.9014 3.15771 52.1426 3.15771 48.7368C3.15771 45.331 5.91729 42.5714 9.32307 42.5714C9.65953 42.5714 9.98989 42.5989 10.3103 42.6508C13.2461 43.123 15.4884 45.6674 15.4884 48.7368Z" fill="#F6CAAE"/>
<path d="M15.4892 48.7368C15.4892 51.8053 13.2469 54.3505 10.311 54.8228C9.77774 52.8834 9.49316 50.8425 9.49316 48.7368C9.49316 46.6303 9.77774 44.5894 10.311 42.6508C13.2469 43.123 15.4892 45.6674 15.4892 48.7368Z" fill="#EAB599"/>
<path d="M11.5269 48.7372C11.5269 49.9541 10.5404 50.9406 9.3235 50.9406C8.10661 50.9406 7.12012 49.9541 7.12012 48.7372C7.12012 47.5203 8.10661 46.5338 9.3235 46.5338C10.5404 46.5338 11.5269 47.5203 11.5269 48.7372Z" fill="#EAB599"/>
<path d="M49.5034 40.8648V62.0571C46.2273 65.1829 42.0273 67.3489 37.3542 68.1019C37.3176 68.108 37.2787 68.1142 37.2421 68.1203C36.0809 68.3056 34.8884 68.3972 33.6723 68.3972C21.0051 68.3972 10.7358 58.128 10.7358 45.4608V36.7258C10.7358 35.6081 10.8152 34.5079 10.9701 33.4322C16.4274 37.3568 24.2522 36.9692 29.238 32.2565C30.889 30.6978 32.0357 28.84 32.6842 26.8708C33.0459 30.3201 34.6237 33.6771 37.4191 36.3199C40.7478 39.4625 45.1462 40.9792 49.5034 40.8648Z" fill="#EAB599"/>
<path d="M49.5038 40.8647V62.057C46.2277 65.1828 42.0277 67.3488 37.3546 68.1018C37.318 68.1079 37.2791 68.114 37.2425 68.1201C26.2705 66.4058 17.8789 56.9117 17.8789 45.4607V36.7257C17.8789 36.493 17.8827 36.2626 17.8911 36.0322C21.9363 36.4465 26.1363 35.1891 29.2384 32.2564C30.8894 30.6977 32.0361 28.8399 32.6846 26.8707C33.0463 30.32 34.624 33.677 37.4195 36.3198C40.7482 39.4624 45.1466 40.9791 49.5038 40.8647Z" fill="#F6CAAE"/>
<path d="M45.9921 43.5237C45.9921 41.4195 44.2869 39.7144 42.1827 39.7144C40.0785 39.7144 38.3726 41.4195 38.3726 43.5237" fill="#EAB599"/>
<path d="M28.9765 43.5237C28.9765 41.4195 27.2705 39.7144 25.1671 39.7144C23.0629 39.7144 21.3569 41.4195 21.3569 43.5237" fill="#EAB599"/>
<path d="M27.769 45.1457C27.769 46.5824 26.604 47.7474 25.1673 47.7474C23.73 47.7474 22.5649 46.5824 22.5649 45.1457C22.5649 43.7084 23.73 42.5433 25.1673 42.5433C26.604 42.5433 27.769 43.7084 27.769 45.1457Z" fill="#3D4159"/>
<path d="M44.7841 45.1457C44.7841 46.5824 43.6191 47.7474 42.1825 47.7474C40.7451 47.7474 39.5801 46.5824 39.5801 45.1457C39.5801 43.7084 40.7451 42.5433 42.1825 42.5433C43.6191 42.5433 44.7841 43.7084 44.7841 45.1457Z" fill="#3D4159"/>
<path d="M36.276 51.697H31.072C30.4525 51.697 29.9497 51.1942 29.9497 50.5747C29.9497 49.9544 30.4525 49.4517 31.072 49.4517H36.276C36.8963 49.4517 37.3991 49.9544 37.3991 50.5747C37.3991 51.1942 36.8963 51.697 36.276 51.697Z" fill="#EAB599"/>
<path d="M33.6748 58.7987C31.7537 58.7987 29.8334 58.3173 28.0824 57.3544C27.5888 57.0836 27.408 56.4633 27.6796 55.9689C27.9512 55.4753 28.5715 55.2952 29.0659 55.5661C31.9513 57.153 35.3975 57.153 38.2838 55.5661C38.7774 55.2952 39.3977 55.4753 39.6693 55.9689C39.9409 56.4633 39.7608 57.0836 39.2664 57.3544C37.5162 58.3173 35.5951 58.7987 33.6748 58.7987Z" fill="#EAB599"/>
<path d="M27.2384 44.6864C27.2384 45.3021 26.7394 45.8011 26.1237 45.8011C25.508 45.8011 25.0083 45.3021 25.0083 44.6864C25.0083 44.0707 25.508 43.5718 26.1237 43.5718C26.7394 43.5718 27.2384 44.0707 27.2384 44.6864Z" fill="white"/>
<path d="M44.3812 44.6864C44.3812 45.3021 43.8822 45.8011 43.2665 45.8011C42.6508 45.8011 42.1519 45.3021 42.1519 44.6864C42.1519 44.0707 42.6508 43.5718 43.2665 43.5718C43.8822 43.5718 44.3812 44.0707 44.3812 44.6864Z" fill="white"/>
<path d="M49.2862 51.4833C49.2862 53.0611 48.0068 54.3406 46.429 54.3406C44.8512 54.3406 43.5718 53.0611 43.5718 51.4833C43.5718 49.9048 44.8512 48.6261 46.429 48.6261C48.0068 48.6261 49.2862 49.9048 49.2862 51.4833Z" fill="#EAB599"/>
<path d="M23.7755 51.4833C23.7755 53.0611 22.496 54.3406 20.9183 54.3406C19.3405 54.3406 18.061 53.0611 18.061 51.4833C18.061 49.9048 19.3405 48.6261 20.9183 48.6261C22.496 48.6261 23.7755 49.9048 23.7755 51.4833Z" fill="#EAB599"/>
<path d="M54.4907 86.5471V92.7079C54.4907 93.7608 55.1415 94.6618 56.0624 95.0311C56.3508 95.1486 56.6651 95.2119 56.9955 95.2119C58.3779 95.2119 59.4995 94.0903 59.4995 92.7079V86.5471C59.4995 85.1639 58.3779 84.0424 56.9955 84.0424C56.6651 84.0424 56.3508 84.1064 56.0624 84.2224C55.7458 84.3491 55.4612 84.5383 55.2247 84.7763C54.7715 85.2295 54.4907 85.8551 54.4907 86.5471Z" fill="#EAB599"/>
<path d="M54.4907 86.547V97.4487C54.4907 98.5016 55.1415 94.6617 56.0624 95.0309C56.9833 94.6617 57.6341 93.7606 57.6341 92.7078V86.547C57.6341 85.4941 56.9833 84.5923 56.0624 84.2223C55.7458 84.3489 55.4612 84.5381 55.2247 84.7762C54.7715 85.2294 54.4907 85.855 54.4907 86.547Z" fill="#F6CAAE"/>
<path d="M64.8988 94.7486V97.7409C64.0336 98.0125 63.1563 98.2589 62.2705 98.4817C61.8562 98.5877 61.4396 98.6854 61.0215 98.7792C60.785 98.8327 60.5439 98.8853 60.3051 98.9349C60.2334 98.9486 60.1625 98.9654 60.0892 98.9791C59.1867 99.1676 58.2726 99.3263 57.3502 99.4628C56.4072 99.6017 55.452 99.7139 54.4907 99.8001V94.7486C54.4907 93.312 55.0744 92.0119 56.0151 91.0689C56.5072 90.5753 57.0992 90.1816 57.7561 89.9184C58.3566 89.6773 59.0096 89.5446 59.6948 89.5446C62.5688 89.5446 64.8988 91.8754 64.8988 94.7486Z" fill="#EAB599"/>
<path d="M61.0215 94.7487V98.7793C60.785 98.8327 60.5439 98.8854 60.3051 98.9349C60.2334 98.9487 60.1625 98.9655 60.0892 98.9792C59.1867 99.1676 58.2726 99.3263 57.3502 99.4629C56.4072 99.6018 55.452 99.7139 54.4907 99.8001V94.7487C54.4907 93.312 55.0744 92.012 56.0151 91.069C56.5072 90.5754 57.0992 90.1817 57.7561 89.9185C59.6704 90.6875 61.0215 92.5613 61.0215 94.7487Z" fill="#F6CAAE"/>
</svg>
