<svg width="100" height="100" viewBox="0 0 100 100" fill="none" xmlns="http://www.w3.org/2000/svg">
<path d="M100 50C100 77.6146 77.6146 100 50 100C22.3854 100 0 77.6146 0 50C0 22.3854 22.3854 0 50 0C77.6146 0 100 22.3854 100 50Z" fill="#F5F5FC"/>
<path d="M100 32.4837C100 44.606 93.3594 55.1773 83.5168 60.7574V60.759C78.7942 63.4369 73.333 64.9673 67.5164 64.9673C63.2737 64.9673 59.2202 64.1533 55.5062 62.6732H55.5024C43.5082 57.8979 35.0327 46.1815 35.0327 32.4837C35.0327 23.3795 38.778 15.1489 44.8121 9.25293C50.6676 3.52859 58.68 0 67.5164 0C71.2266 0 74.7918 0.622559 78.1121 1.76697C90.8494 6.1615 100 18.2533 100 32.4837Z" fill="#66BAED"/>
<path d="M74.3714 64.241C72.1612 64.7163 69.8678 64.9673 67.5164 64.9673C63.2737 64.9673 59.2202 64.1533 55.5062 62.6732H55.5024C43.5082 57.8979 35.0327 46.1815 35.0327 32.4837C35.0327 23.3795 38.778 15.1489 44.8121 9.25293C50.6676 3.52859 58.68 0 67.5164 0C69.8678 0 72.1589 0.248718 74.3676 0.726318C68.2755 2.03476 62.8182 5.05295 58.5229 9.25293C52.488 15.1489 48.7427 23.3795 48.7427 32.4837C48.7427 46.1815 57.2182 57.8979 69.2124 62.6732H69.2162C70.8718 63.3324 72.5938 63.8611 74.3714 64.241Z" fill="#2BA1CF"/>
<path d="M99.9999 32.4836C99.9999 44.606 93.3593 55.1772 83.5166 60.7574C77.8548 49.2263 64.688 59.4329 63.1568 45.0469C61.6286 30.6594 78.9222 35.7101 83.9736 30.6594C89.0242 25.608 83.9736 17.8016 79.6874 22.0878C75.4019 26.3732 68.9734 25.1487 70.5039 20.8633C72.0343 16.5779 79.3814 14.7407 74.0958 12.9043C68.8079 11.0694 74.0958 5.78149 78.1081 1.7692L78.1119 1.76691C86.5592 4.68134 93.4287 10.9817 97.0961 19.0452C93.1571 19.0452 89.4835 25.7614 93.1571 29.4349C95.1506 31.4285 97.6287 31.9732 99.9976 32.151C99.9999 32.2608 99.9999 32.3737 99.9999 32.4836Z" fill="#3FB777"/>
<path d="M55.5062 62.6732H55.5024C43.5082 57.8979 35.0327 46.1815 35.0327 32.4837C35.0327 23.3795 38.778 15.1489 44.8121 9.25293C53.6698 11.3754 55.2003 17.4957 49.3836 19.6388C43.6509 21.7506 43.2717 25.647 49.1204 27.5162C49.2081 27.5452 49.2936 27.5711 49.3836 27.5978C53.5203 28.8391 51.9265 32.737 48.8511 35.1349C47.3778 36.2839 45.5613 37.088 43.8737 37.088C38.6696 37.088 42.9551 47.6486 49.231 47.6486C55.5062 47.6486 55.5062 62.6732 55.5062 62.6732Z" fill="#FFE152"/>
<path d="M55.5062 62.6732H55.5024C43.5082 57.8979 35.0327 46.1815 35.0327 32.4837C35.0327 23.3795 38.778 15.1489 44.8121 9.25293C53.6698 11.3754 55.2003 17.4957 49.3836 19.6388C43.6509 21.7506 43.2717 25.647 49.1204 27.5162C48.8717 29.1367 48.7427 30.7938 48.7427 32.4837C48.7427 33.3755 48.7794 34.259 48.8511 35.1349C47.3778 36.2839 45.5613 37.088 43.8737 37.088C38.6696 37.088 42.9551 47.6486 49.231 47.6486C55.5062 47.6486 55.5062 62.6732 55.5062 62.6732Z" fill="#2DA365"/>
<path d="M90.553 7.13274C90.3729 -1.28554 77.7287 -1.28554 77.5487 7.13274C77.5471 7.22505 77.5464 7.3166 77.5464 7.40892C77.5464 12.1712 80.1701 16.3201 84.0512 18.4899C87.9323 16.3201 90.556 12.1712 90.556 7.40892C90.556 7.3166 90.5553 7.22505 90.553 7.13274Z" fill="#F74F4F"/>
<path d="M87.3657 7.19293C87.3657 8.25571 86.866 9.20099 86.0878 9.80753C85.5263 10.2462 84.819 10.5071 84.0515 10.5071C83.284 10.5071 82.5768 10.2462 82.0145 9.80753C81.237 9.20099 80.7373 8.25571 80.7373 7.19293C80.7373 5.36264 82.2205 3.87872 84.0515 3.87872C85.8818 3.87872 87.3657 5.36264 87.3657 7.19293Z" fill="#DDE8ED"/>
<path d="M76.812 33.3916C76.632 24.9726 63.9878 24.9726 63.8077 33.3916C63.8055 33.4832 63.8047 33.5755 63.8047 33.6678C63.8047 38.4301 66.4292 42.5789 70.3103 44.7487C74.1906 42.5789 76.8151 38.4301 76.8151 33.6678C76.8151 33.5755 76.8136 33.4832 76.812 33.3916Z" fill="#F74F4F"/>
<path d="M73.6243 33.4511C73.6243 34.5139 73.1238 35.4599 72.3464 36.0665C71.7849 36.5052 71.0776 36.7661 70.3093 36.7661C69.5418 36.7661 68.8346 36.5044 68.273 36.0665C67.4948 35.4599 66.9951 34.5139 66.9951 33.4511C66.9951 31.6208 68.479 30.1369 70.3093 30.1369C72.1404 30.1369 73.6243 31.6208 73.6243 33.4511Z" fill="#DDE8ED"/>
<path d="M94.2266 40.6021C94.0465 32.1838 81.4023 32.1838 81.2223 40.6021C81.22 40.6944 81.2192 40.786 81.2192 40.8783C81.2192 45.6405 83.8438 49.7894 87.7248 51.9592C91.6051 49.7894 94.2296 45.6405 94.2296 40.8783C94.2296 40.786 94.2289 40.6944 94.2266 40.6021Z" fill="#F74F4F"/>
<path d="M91.0393 40.6624C91.0393 41.7251 90.5396 42.6704 89.7614 43.2769C89.1999 43.7156 88.4926 43.9766 87.7251 43.9766C86.9568 43.9766 86.2504 43.7156 85.6881 43.2769C84.9106 42.6704 84.4102 41.7251 84.4102 40.6624C84.4102 38.8321 85.8941 37.3481 87.7251 37.3481C89.5554 37.3481 91.0393 38.8321 91.0393 40.6624Z" fill="#DDE8ED"/>
<path d="M58.3067 87.8082V93.5203C53.3171 96.3531 47.7903 98.349 41.9188 99.3225C41.8905 99.3263 41.8638 99.3301 41.8348 99.3347C32.9313 97.8729 24.8205 94.0612 18.1616 88.5528C15.3189 86.2037 12.7409 83.5464 10.478 80.6305C12.6799 75.3792 17.2247 71.3508 22.8064 69.8593C23.0963 69.7815 23.3885 69.7097 23.6837 69.6464C24.4719 69.4755 25.2798 69.3573 26.1023 69.2894C26.6043 69.2489 27.1109 69.2283 27.6228 69.2283H39.723C41.0757 69.2283 42.3941 69.371 43.6636 69.6464C43.7368 69.6609 43.8109 69.6769 43.8818 69.6937C44.0962 69.7426 44.3106 69.796 44.5211 69.8532C44.5273 69.8547 44.5311 69.8547 44.5372 69.857C46.6292 70.4162 48.5762 71.3325 50.3065 72.5341C55.1413 75.8896 58.3067 81.4796 58.3067 87.8082Z" fill="#A35418"/>
<path d="M58.3067 87.8082V99.3118C55.6044 99.765 52.8311 100 50.0006 100C37.9027 100 26.8088 95.7039 18.1616 88.5528V87.8082C18.1616 79.2122 23.9981 71.9795 31.9273 69.8593C32.2165 69.7815 32.5087 69.7097 32.8047 69.6464C33.5921 69.4755 34.4008 69.3573 35.2232 69.2894C35.7253 69.2489 36.2311 69.2283 36.743 69.2283H39.7231C41.0757 69.2283 42.3941 69.371 43.6636 69.6464C43.7369 69.6609 43.8109 69.6769 43.8818 69.6937C44.0962 69.7426 44.3106 69.796 44.5212 69.8532C44.5273 69.8547 44.5311 69.8547 44.5372 69.857C46.6292 70.4162 48.5762 71.3325 50.3065 72.5341C55.1413 75.8896 58.3067 81.4796 58.3067 87.8082Z" fill="#CC7A3B"/>
<path d="M44.5821 69.6465L44.537 69.8571L38.3511 98.6328C34.8103 97.7898 31.4168 96.5691 28.2147 95.0142L22.8062 69.8593L22.7612 69.6465H44.5821Z" fill="#F2F0EC"/>
<path d="M33.6713 76.8348L25.3056 81.4834L22.7612 69.6472L27.9591 66.5855" fill="#D8D5D0"/>
<path d="M33.6714 76.8348L42.0363 81.4834L44.5814 69.6472L39.3835 66.5855" fill="#D8D5D0"/>
<path d="M8.69531 64.7484V36.7264C8.69531 33.8792 9.17062 31.0891 10.1075 28.4348C13.6147 18.454 23.0851 11.7463 33.6724 11.7463C34.9847 11.7463 36.2931 11.8485 37.5642 12.0492C43.3816 12.9578 48.7184 15.9272 52.588 20.4102C56.4988 24.9398 58.6518 30.7343 58.6518 36.7264V64.7484" fill="#3D4159"/>
<path d="M18.9696 37.8205C18.9696 47.7326 24.774 59.1996 27.9616 64.7492H8.69434V36.7264C8.69434 33.8791 9.16965 31.0898 10.1065 28.4348C13.5924 18.512 22.9758 11.8241 33.4906 11.7485C25.8109 11.9408 18.9696 24.2607 18.9696 37.8205Z" fill="#2A2F4F"/>
<path d="M40.3031 62.0705V70.2065C40.3031 73.185 38.3393 75.7019 35.6346 76.5381C35.0151 76.7304 34.3552 76.8349 33.6724 76.8349C30.0118 76.8349 27.0439 73.8671 27.0439 70.2065V62.0705H40.3031Z" fill="#EAB599"/>
<path d="M40.303 69.6907V70.2064C40.303 73.1849 38.3392 75.7026 35.6346 76.5388C33.1939 75.7881 31.3583 73.6664 31.0195 71.0693C31.462 71.0968 31.9076 71.1105 32.3547 71.1105C33.6089 71.1105 34.8388 71.0106 36.0366 70.8137C37.5121 70.5764 38.9381 70.1973 40.303 69.6907Z" fill="#F6CAAE"/>
<path d="M15.4883 48.7366C15.4883 51.8059 13.2461 54.3503 10.3103 54.8225C9.98984 54.8752 9.65948 54.9019 9.32303 54.9019C5.91727 54.9019 3.15771 52.1423 3.15771 48.7366C3.15771 45.3316 5.91727 42.572 9.32303 42.572C9.65948 42.572 9.98984 42.5987 10.3103 42.6514C13.2461 43.1236 15.4883 45.668 15.4883 48.7366Z" fill="#F6CAAE"/>
<path d="M15.4886 48.7366C15.4886 51.8059 13.2463 54.3503 10.3105 54.8225C9.77725 52.8839 9.49268 50.843 9.49268 48.7366C9.49268 46.6309 9.77725 44.59 10.3105 42.6514C13.2463 43.1236 15.4886 45.668 15.4886 48.7366Z" fill="#EAB599"/>
<path d="M11.5269 48.7366C11.5269 49.9542 10.5404 50.9407 9.32349 50.9407C8.1066 50.9407 7.12012 49.9542 7.12012 48.7366C7.12012 47.5197 8.1066 46.5332 9.32349 46.5332C10.5404 46.5332 11.5269 47.5197 11.5269 48.7366Z" fill="#EAB599"/>
<path d="M49.5036 40.8644V62.0566C46.2283 65.1831 42.0283 67.3484 37.3545 68.1014C37.3179 68.1075 37.279 68.1136 37.2424 68.1197C36.0812 68.3058 34.8895 68.3974 33.6726 68.3974C21.0055 68.3974 10.7363 58.1282 10.7363 45.4604V36.7263C10.7363 35.6078 10.8157 34.5076 10.9706 33.4319C16.4279 37.3564 24.2526 36.9689 29.2384 32.257C30.8894 30.6975 32.0361 28.8405 32.6853 26.8706C33.0462 30.3199 34.624 33.6768 37.4201 36.3196C40.7481 39.4629 45.1464 40.9789 49.5036 40.8644Z" fill="#EAB599"/>
<path d="M49.503 40.8646V62.0568C46.2277 65.1833 42.0277 67.3485 37.354 68.1016C37.3174 68.1077 37.2784 68.1138 37.2418 68.1199C26.27 66.4055 17.8784 56.9115 17.8784 45.4606V36.7264C17.8784 36.4937 17.8822 36.2626 17.8906 36.0322C21.9357 36.4464 26.1357 35.1891 29.2378 32.2571C30.8888 30.6977 32.0355 28.8407 32.6848 26.8708C33.0457 30.32 34.6234 33.677 37.4196 36.3198C40.7475 39.4631 45.1459 40.9791 49.503 40.8646Z" fill="#F6CAAE"/>
<path d="M45.9913 43.5234C45.9913 41.42 44.2861 39.7141 42.1819 39.7141C40.0785 39.7141 38.3726 41.4192 38.3726 43.5234" fill="#EAB599"/>
<path d="M28.9766 43.5234C28.9766 41.42 27.2715 39.7141 25.1673 39.7141C23.0631 39.7141 21.3579 41.4192 21.3579 43.5234" fill="#EAB599"/>
<path d="M27.769 45.1454C27.769 46.5828 26.6039 47.7478 25.1673 47.7478C23.7299 47.7478 22.5649 46.5828 22.5649 45.1454C22.5649 43.7088 23.7299 42.5438 25.1673 42.5438C26.6039 42.5438 27.769 43.7088 27.769 45.1454Z" fill="#3D4159"/>
<path d="M44.7846 45.1454C44.7846 46.5828 43.6196 47.7478 42.1822 47.7478C40.7456 47.7478 39.5806 46.5828 39.5806 45.1454C39.5806 43.7088 40.7456 42.5438 42.1822 42.5438C43.6196 42.5438 44.7846 43.7088 44.7846 45.1454Z" fill="#3D4159"/>
<path d="M36.2768 51.6968H31.0728C30.4525 51.6968 29.9497 51.1948 29.9497 50.5745C29.9497 49.9542 30.4525 49.4522 31.0728 49.4522H36.2768C36.8963 49.4522 37.399 49.9542 37.399 50.5745C37.399 51.1948 36.8963 51.6968 36.2768 51.6968Z" fill="#EAB599"/>
<path d="M33.6744 58.7983C31.7533 58.7983 29.833 58.3169 28.0821 57.3548C27.5885 57.0832 27.4084 56.4629 27.6792 55.9693C27.9508 55.4749 28.5719 55.2948 29.0655 55.5665C31.9517 57.1534 35.3979 57.1526 38.2833 55.5665C38.777 55.2948 39.3972 55.4749 39.6688 55.9693C39.9404 56.4629 39.7604 57.0832 39.2668 57.3548C37.5158 58.3169 35.5947 58.7983 33.6744 58.7983Z" fill="#EAB599"/>
<path d="M27.2386 44.6861C27.2386 45.3018 26.7396 45.8015 26.1239 45.8015C25.5082 45.8015 25.0093 45.3018 25.0093 44.6861C25.0093 44.0704 25.5082 43.5715 26.1239 43.5715C26.7396 43.5715 27.2386 44.0704 27.2386 44.6861Z" fill="white"/>
<path d="M44.3819 44.6861C44.3819 45.3018 43.8822 45.8015 43.2665 45.8015C42.6508 45.8015 42.1519 45.3018 42.1519 44.6861C42.1519 44.0704 42.6508 43.5715 43.2665 43.5715C43.8822 43.5715 44.3819 44.0704 44.3819 44.6861Z" fill="white"/>
<path d="M49.2862 51.4832C49.2862 53.0609 48.0067 54.3404 46.429 54.3404C44.8512 54.3404 43.5718 53.0609 43.5718 51.4832C43.5718 49.9054 44.8512 48.626 46.429 48.626C48.0067 48.626 49.2862 49.9054 49.2862 51.4832Z" fill="#EAB599"/>
<path d="M23.7755 51.4832C23.7755 53.0609 22.4968 54.3404 20.9182 54.3404C19.3405 54.3404 18.061 53.0609 18.061 51.4832C18.061 49.9054 19.3405 48.626 20.9182 48.626C22.4968 48.626 23.7755 49.9054 23.7755 51.4832Z" fill="#EAB599"/>
<path d="M74.2173 48.5199L49.1273 99.9916C47.6517 99.9672 46.1907 99.8771 44.7495 99.7261L72.0009 47.4022C72.3153 46.7994 73.0538 46.5629 73.6596 46.8673C74.2661 47.1733 74.5148 47.9103 74.2173 48.5199Z" fill="#3D4159"/>
</svg>
