<svg width="100" height="100" viewBox="0 0 100 100" fill="none" xmlns="http://www.w3.org/2000/svg">
<path d="M100 50C100 73.7854 83.39 93.6935 61.1389 98.7534C60.2043 98.967 59.259 99.1531 58.3038 99.3126C57.2243 99.4942 56.1348 99.6391 55.0346 99.749C53.6186 99.8917 52.1835 99.9733 50.7324 99.9939C50.4875 99.9977 50.2449 100 50 100C47.2206 100 44.4916 99.7734 41.835 99.3347C40.6593 99.1409 39.4958 98.9082 38.3492 98.6328C34.8083 97.7898 31.414 96.5675 28.212 95.0142C24.5979 93.261 21.2242 91.0858 18.1595 88.5513C15.316 86.2 12.7365 83.5426 10.4774 80.6267C3.90854 72.1657 0 61.5387 0 50C0 22.3854 22.3854 0 50 0C77.6146 0 100 22.3854 100 50Z" fill="#F5F5FC"/>
<path d="M58.3034 87.8081V93.5203C53.3138 96.3531 47.7871 98.3489 41.9163 99.3224C41.8896 99.3262 41.8606 99.3308 41.8346 99.3346C32.9304 97.8736 24.8203 94.0589 18.1591 88.5512C15.3156 86.1999 12.7361 83.5425 10.4771 80.6266C12.6789 75.3776 17.2237 71.3508 22.8039 69.8592C23.0938 69.7814 23.3852 69.7104 23.6812 69.6471C24.4694 69.4755 25.2773 69.3572 26.0998 69.2901C26.6018 69.2489 27.1076 69.2283 27.6203 69.2283H39.7198C41.0732 69.2283 42.3916 69.3717 43.6611 69.6471C43.7343 69.6609 43.8076 69.6776 43.8793 69.6937C44.0937 69.7425 44.3081 69.7959 44.5179 69.8531C44.524 69.8546 44.5278 69.8546 44.5347 69.8569C46.6259 70.4162 48.5729 71.3325 50.304 72.5349C55.138 75.8895 58.3034 81.4796 58.3034 87.8081Z" fill="#DD3033"/>
<path d="M58.304 87.8081V99.3125C55.604 99.7649 52.8284 99.9999 50.0002 99.9999C37.9 99.9999 26.8083 95.7038 18.1597 88.5512V87.8081C18.1597 79.2121 23.9962 71.9794 31.9246 69.8592C32.2145 69.7814 32.506 69.7104 32.802 69.6471C33.5901 69.4755 34.3981 69.3572 35.2205 69.2901C35.7225 69.2489 36.2291 69.2283 36.7411 69.2283H39.7203C41.0738 69.2283 42.3922 69.3717 43.6617 69.6471C43.7349 69.6609 43.8082 69.6776 43.8799 69.6937C44.0943 69.7425 44.3087 69.7959 44.5185 69.8531C44.5246 69.8546 44.5284 69.8546 44.5352 69.8569C46.6265 70.4162 48.5735 71.3325 50.3046 72.5349C55.1386 75.8895 58.304 81.4796 58.304 87.8081Z" fill="#F74F4F"/>
<path d="M44.5793 69.6472L44.5351 69.857L38.3492 98.6328C34.8084 97.7898 31.4141 96.5675 28.212 95.0142L22.8043 69.8593L22.7593 69.6472H44.5793Z" fill="#F2F0EC"/>
<path d="M33.6695 76.8348L25.3047 81.4841L22.7603 69.6471L27.9582 66.5854" fill="#D8D5D0"/>
<path d="M33.6694 76.8348L42.0351 81.4841L44.5795 69.6471L39.3823 66.5854" fill="#D8D5D0"/>
<path d="M8.69385 64.7492V36.7265C8.69385 33.8792 9.16916 31.0891 10.106 28.4348C13.6125 18.4541 23.0836 11.7471 33.671 11.7471C34.9825 11.7471 36.2917 11.8485 37.5627 12.0492C43.3801 12.9586 48.7169 15.928 52.5865 20.4102C56.4966 24.9398 58.6504 30.7343 58.6504 36.7265V64.7492" fill="#CC7A3B"/>
<path d="M18.9681 37.8204C18.9681 47.7325 24.7726 59.2003 27.9601 64.7491H8.69287V36.7264C8.69287 33.8799 9.16818 31.0898 10.1051 28.4348C13.5909 18.512 22.9743 11.8248 33.4884 11.7493C25.8094 11.9408 18.9681 24.2615 18.9681 37.8204Z" fill="#A35418"/>
<path d="M40.3016 62.0706V70.2065C40.3016 73.1851 38.3378 75.7028 35.6324 76.5389C35.0137 76.7304 34.3537 76.835 33.6709 76.835C30.0103 76.835 27.0425 73.8671 27.0425 70.2065V62.0706H40.3016Z" fill="#EAB599"/>
<path d="M40.3015 69.6908V70.2065C40.3015 73.1851 38.3377 75.7028 35.6323 76.5389C33.1917 75.7882 31.3568 73.6665 31.0181 71.0694C31.4606 71.0969 31.9061 71.1106 32.3532 71.1106C33.6075 71.1106 34.8373 71.0107 36.0352 70.8138C37.5107 70.5773 38.9366 70.1974 40.3015 69.6908Z" fill="#F6CAAE"/>
<path d="M15.4869 48.7373C15.4869 51.8059 13.2446 54.351 10.3088 54.8233C9.98837 54.8752 9.65802 54.9019 9.32156 54.9019C5.9158 54.9019 3.15625 52.1431 3.15625 48.7373C3.15625 45.3316 5.9158 42.572 9.32156 42.572C9.65802 42.572 9.98837 42.5995 10.3088 42.6514C13.2446 43.1236 15.4869 45.668 15.4869 48.7373Z" fill="#F6CAAE"/>
<path d="M15.4872 48.7373C15.4872 51.8059 13.2449 54.351 10.3091 54.8233C9.77579 52.8839 9.49121 50.843 9.49121 48.7373C9.49121 46.6309 9.77579 44.59 10.3091 42.6514C13.2449 43.1236 15.4872 45.668 15.4872 48.7373Z" fill="#EAB599"/>
<path d="M11.5249 48.7375C11.5249 49.9544 10.5384 50.9409 9.32153 50.9409C8.10464 50.9409 7.11816 49.9544 7.11816 48.7375C7.11816 47.5207 8.10464 46.5342 9.32153 46.5342C10.5384 46.5342 11.5249 47.5207 11.5249 48.7375Z" fill="#EAB599"/>
<path d="M49.5016 40.8654V62.0568C46.2263 65.1833 42.0256 67.3486 37.3526 68.1016C37.3159 68.1077 37.277 68.1138 37.2404 68.1207C36.0792 68.3061 34.8875 68.3976 33.6706 68.3976C21.0035 68.3976 10.7344 58.1284 10.7344 45.4614V36.7265C10.7344 35.608 10.8137 34.5078 10.9686 33.4329C16.4259 37.3567 24.2506 36.9691 29.2364 32.2572C30.8874 30.6977 32.0341 28.8407 32.6834 26.8716C33.0443 30.3201 34.622 33.6778 37.4174 36.3206C40.7461 39.4631 45.1445 40.9799 49.5016 40.8654Z" fill="#EAB599"/>
<path d="M49.502 40.8654V62.0568C46.2267 65.1833 42.026 67.3486 37.353 68.1016C37.3164 68.1077 37.2775 68.1138 37.2408 68.1207C26.269 66.4063 17.8774 56.9123 17.8774 45.4614V36.7265C17.8774 36.4938 17.8813 36.2634 17.8896 36.0322C21.9348 36.4465 26.1347 35.1899 29.2368 32.2572C30.8878 30.6977 32.0345 28.8407 32.6838 26.8716C33.0447 30.3201 34.6224 33.6778 37.4178 36.3206C40.7466 39.4631 45.1449 40.9799 49.502 40.8654Z" fill="#F6CAAE"/>
<path d="M45.9901 43.5242C45.9901 41.42 44.2849 39.7141 42.1807 39.7141C40.0765 39.7141 38.3706 41.42 38.3706 43.5242" fill="#EAB599"/>
<path d="M28.9749 43.5242C28.9749 41.42 27.2698 39.7141 25.1656 39.7141C23.0614 39.7141 21.3555 41.42 21.3555 43.5242" fill="#EAB599"/>
<path d="M27.767 45.1453C27.767 46.5827 26.602 47.7477 25.1654 47.7477C23.728 47.7477 22.563 46.5827 22.563 45.1453C22.563 43.7087 23.728 42.5437 25.1654 42.5437C26.602 42.5437 27.767 43.7087 27.767 45.1453Z" fill="#3D4159"/>
<path d="M44.7834 45.1453C44.7834 46.5827 43.6184 47.7477 42.181 47.7477C40.7436 47.7477 39.5786 46.5827 39.5786 45.1453C39.5786 43.7087 40.7436 42.5437 42.181 42.5437C43.6184 42.5437 44.7834 43.7087 44.7834 45.1453Z" fill="#3D4159"/>
<path d="M36.2753 51.6968H31.0705C30.451 51.6968 29.9482 51.1948 29.9482 50.5745C29.9482 49.955 30.451 49.4522 31.0705 49.4522H36.2753C36.8948 49.4522 37.3976 49.955 37.3976 50.5745C37.3976 51.1948 36.8948 51.6968 36.2753 51.6968Z" fill="#EAB599"/>
<path d="M33.6734 58.7981C31.7524 58.7981 29.832 58.3175 28.0811 57.3547C27.5875 57.0831 27.4074 56.4628 27.6783 55.9692C27.9499 55.4755 28.5709 55.2955 29.0645 55.5663C31.9507 57.1532 35.3962 57.1532 38.2824 55.5663C38.776 55.2947 39.3963 55.4748 39.6679 55.9692C39.9395 56.4628 39.7594 57.0831 39.2658 57.3547C37.5148 58.3175 35.5938 58.7981 33.6734 58.7981Z" fill="#EAB599"/>
<path d="M27.2369 44.6869C27.2369 45.3026 26.7379 45.8015 26.1223 45.8015C25.5066 45.8015 25.0068 45.3026 25.0068 44.6869C25.0068 44.0704 25.5066 43.5715 26.1223 43.5715C26.7379 43.5715 27.2369 44.0704 27.2369 44.6869Z" fill="white"/>
<path d="M44.3792 44.6869C44.3792 45.3026 43.8802 45.8015 43.2646 45.8015C42.6489 45.8015 42.1499 45.3026 42.1499 44.6869C42.1499 44.0704 42.6489 43.5715 43.2646 43.5715C43.8802 43.5715 44.3792 44.0704 44.3792 44.6869Z" fill="white"/>
<path d="M49.2847 51.4831C49.2847 53.0616 48.0053 54.3403 46.4275 54.3403C44.8498 54.3403 43.5703 53.0616 43.5703 51.4831C43.5703 49.9053 44.8498 48.6259 46.4275 48.6259C48.0053 48.6259 49.2847 49.9053 49.2847 51.4831Z" fill="#EAB599"/>
<path d="M23.774 51.4831C23.774 53.0616 22.4953 54.3403 20.9168 54.3403C19.339 54.3403 18.0596 53.0616 18.0596 51.4831C18.0596 49.9053 19.339 48.6259 20.9168 48.6259C22.4953 48.6259 23.774 49.9053 23.774 51.4831Z" fill="#EAB599"/>
<path d="M48.8848 5.47705H94.179V39.5232H48.8848V5.47705Z" fill="#DADAE6"/>
<path d="M58.0044 37.3955L53.1406 48.9464L74.4198 36.7874L58.0044 37.3955Z" fill="#DADAE6"/>
<path d="M61.1389 89.4043V98.7534C60.2043 98.967 59.259 99.1531 58.3038 99.3126C55.8365 99.7269 53.3081 99.9573 50.7324 99.9939V89.4043H61.1389Z" fill="#F74F4F"/>
<path d="M55.0346 89.4043V99.749C53.6186 99.8917 52.1835 99.9733 50.7324 99.9939V89.4043H55.0346Z" fill="#DD3033"/>
<path d="M70.8151 86.3959C70.8151 88.0576 69.4685 89.4042 67.8068 89.4042H50.7314V86.3959C50.7314 84.735 52.0788 83.3884 53.7397 83.3884H67.8068C68.6376 83.3884 69.3907 83.7249 69.9339 84.2696C70.2192 84.5557 70.4481 84.9006 70.6007 85.282C70.7395 85.6269 70.8151 86.0023 70.8151 86.3959Z" fill="#EAB599"/>
<path d="M70.6007 85.282C70.1582 86.3921 69.0748 87.1757 67.8068 87.1757H50.7314V86.3959C50.7314 84.735 52.0788 83.3884 53.7397 83.3884H67.8068C68.6376 83.3884 69.3907 83.7249 69.9339 84.2696C70.2192 84.5557 70.4481 84.9006 70.6007 85.282Z" fill="#F6CAAE"/>
<path d="M82.3019 19.2032C82.3019 25.0359 77.5732 29.7638 71.7413 29.7638C65.9086 29.7638 61.1807 25.0359 61.1807 19.2032C61.1807 13.3705 65.9086 8.64258 71.7413 8.64258C77.5732 8.64258 82.3019 13.3705 82.3019 19.2032Z" fill="#FFE152"/>
<path d="M71.7409 23.2689C68.0933 23.2689 65.1255 20.3011 65.1255 16.6534H67.1664C67.1664 19.1757 69.2187 21.228 71.7409 21.228C74.2625 21.228 76.3148 19.1757 76.3148 16.6534H78.3556C78.3556 20.3011 75.3878 23.2689 71.7409 23.2689Z" fill="white"/>
<path d="M70.7207 22.2482H72.7616V31.8727H70.7207V22.2482Z" fill="white"/>
<path d="M74.4564 34.5452H69.0251C67.5022 34.5452 66.2686 33.3108 66.2686 31.788V27.9733H77.2137V31.788C77.2137 33.3108 75.9792 34.5452 74.4564 34.5452Z" fill="#3D4159"/>
</svg>
