<svg width="33" height="32" viewBox="0 0 33 32" fill="none" xmlns="http://www.w3.org/2000/svg">
<path d="M16.1617 2.6665C8.81584 2.6665 2.86731 8.63984 2.86731 15.9998C2.86731 23.3598 8.81584 29.3332 16.1617 29.3332C23.5208 29.3332 29.4826 23.3598 29.4826 15.9998C29.4826 8.63984 23.5208 2.6665 16.1617 2.6665ZM25.3839 10.6665H21.4581C21.0323 8.99984 20.4201 7.39984 19.6217 5.91984C22.0703 6.75984 24.1063 8.4665 25.3839 10.6665ZM16.175 5.3865C17.2795 6.9865 18.1445 8.75984 18.7167 10.6665H13.6332C14.2054 8.75984 15.0704 6.9865 16.175 5.3865ZM5.87484 18.6665C5.66192 17.8132 5.52884 16.9198 5.52884 15.9998C5.52884 15.0798 5.66192 14.1865 5.87484 13.3332H10.3728C10.2664 14.2132 10.1865 15.0932 10.1865 15.9998C10.1865 16.9065 10.2664 17.7865 10.3728 18.6665H5.87484ZM6.96607 21.3332H10.8918C11.3177 22.9998 11.9298 24.5998 12.7283 26.0798C10.2797 25.2398 8.24361 23.5465 6.96607 21.3332V21.3332ZM10.8918 10.6665H6.96607C8.24361 8.45317 10.2797 6.75984 12.7283 5.91984C11.9298 7.39984 11.3177 8.99984 10.8918 10.6665V10.6665ZM16.175 26.6132C15.0704 25.0132 14.2054 23.2398 13.6332 21.3332H18.7167C18.1445 23.2398 17.2795 25.0132 16.175 26.6132ZM19.289 18.6665H13.061C12.9412 17.7865 12.8481 16.9065 12.8481 15.9998C12.8481 15.0932 12.9412 14.1998 13.061 13.3332H19.289C19.4087 14.1998 19.5019 15.0932 19.5019 15.9998C19.5019 16.9065 19.4087 17.7865 19.289 18.6665ZM19.6217 26.0798C20.4201 24.5998 21.0323 22.9998 21.4581 21.3332H25.3839C24.1063 23.5332 22.0703 25.2398 19.6217 26.0798V26.0798ZM21.9771 18.6665C22.0836 17.7865 22.1634 16.9065 22.1634 15.9998C22.1634 15.0932 22.0836 14.2132 21.9771 13.3332H26.4751C26.688 14.1865 26.8211 15.0798 26.8211 15.9998C26.8211 16.9198 26.688 17.8132 26.4751 18.6665H21.9771Z" fill="white"/>
</svg>
