<svg width="53" height="69" viewBox="0 0 53 69" fill="none" xmlns="http://www.w3.org/2000/svg">
<path opacity="0.7" d="M52.1031 54.48V69H3.38313V54.48H20.4231V18.12C19.7031 19.08 18.5431 20.08 16.9431 21.12C15.4231 22.08 13.7431 23 11.9031 23.88C10.0631 24.76 8.14313 25.48 6.14313 26.04C4.22313 26.6 2.50313 26.88 0.983125 26.88V11.88C2.42313 11.88 4.18313 11.44 6.26313 10.56C8.34313 9.6 10.3831 8.48 12.3831 7.19999C14.3831 5.92 16.1031 4.68 17.5431 3.48C19.0631 2.2 20.0231 1.2 20.4231 0.479995H36.8631V54.48H52.1031Z" fill="#D5D5E0"/>
</svg>
