<svg width="60" height="88" viewBox="0 0 60 88" fill="none" xmlns="http://www.w3.org/2000/svg">
<path opacity="0.7" d="M42.8059 41.68C47.7659 42.56 51.7659 44.96 54.8059 48.88C57.9259 52.72 59.4859 57.44 59.4859 63.04C59.4859 66.8 58.7259 70.2 57.2059 73.24C55.7659 76.28 53.6859 78.84 50.9659 80.92C48.3259 83.08 45.0859 84.72 41.2459 85.84C37.4059 87.04 33.0859 87.64 28.2859 87.64C22.2059 87.64 16.8059 86.64 12.0859 84.64C7.44594 82.72 3.56594 79.88 0.445938 76.12L9.56594 64.72C11.6459 67.36 14.1259 69.4 17.0059 70.84C19.8859 72.28 23.4859 73 27.8059 73C32.6859 73 36.4059 72.04 38.9659 70.12C41.5259 68.2 42.8059 65.24 42.8059 61.24C42.8059 57.08 41.3259 53.88 38.3659 51.64C35.4059 49.4 30.9259 48.28 24.9259 48.28H21.5659V36.28H25.2859C30.2459 36.28 34.0859 35.2 36.8059 33.04C39.5259 30.8 40.8859 27.96 40.8859 24.52C40.8859 21.24 39.7659 18.8 37.5259 17.2C35.2859 15.6 32.3659 14.8 28.7659 14.8C25.0859 14.8 21.7659 15.64 18.8059 17.32C15.9259 19 13.5659 21.36 11.7259 24.4L1.64594 13.12C2.84594 11.28 4.44594 9.64 6.44594 8.19999C8.44594 6.68 10.6859 5.39999 13.1659 4.35999C15.7259 3.23999 18.4859 2.4 21.4459 1.84C24.4059 1.2 27.4459 0.879996 30.5659 0.879996C34.6459 0.879996 38.3659 1.4 41.7259 2.44C45.0859 3.48 47.9659 4.92 50.3659 6.76C52.8459 8.6 54.7259 10.84 56.0059 13.48C57.3659 16.04 58.0459 18.92 58.0459 22.12C58.0459 24.52 57.6859 26.8 56.9659 28.96C56.2459 31.12 55.2059 33.08 53.8459 34.84C52.4859 36.6 50.8459 38.08 48.9259 39.28C47.0859 40.48 45.0459 41.28 42.8059 41.68Z" fill="#D5D5E0"/>
</svg>
