<svg width="59" height="70" viewBox="0 0 59 70" fill="none" xmlns="http://www.w3.org/2000/svg">
<path opacity="0.7" d="M0.825625 70C0.825625 66.4 1.10563 63.16 1.66563 60.28C2.22563 57.32 3.18563 54.6 4.54563 52.12C5.98563 49.64 7.90563 47.32 10.3056 45.16C12.7856 43 15.9056 40.88 19.6656 38.8C22.9456 37.04 25.8256 35.52 28.3056 34.24C30.8656 32.88 32.9856 31.64 34.6656 30.52C36.3456 29.4 37.6256 28.28 38.5056 27.16C39.3856 25.96 39.8256 24.6 39.8256 23.08C39.8256 20.68 38.8656 18.64 36.9456 16.96C35.0256 15.2 32.2656 14.32 28.6656 14.32C26.7456 14.32 24.9856 14.6 23.3856 15.16C21.7856 15.64 20.2656 16.32 18.8256 17.2C17.4656 18.08 16.1856 19.08 14.9856 20.2C13.8656 21.24 12.8256 22.36 11.8656 23.56L1.54563 11.68C2.58563 10.56 4.06563 9.36 5.98563 8.08C7.90563 6.71999 10.1456 5.47999 12.7056 4.35999C15.3456 3.16 18.2256 2.2 21.3456 1.48C24.5456 0.679996 27.9456 0.279996 31.5456 0.279996C35.6256 0.279996 39.2656 0.799997 42.4656 1.84C45.6656 2.79999 48.3456 4.19999 50.5056 6.03999C52.7456 7.79999 54.4256 9.96 55.5456 12.52C56.7456 15 57.3456 17.72 57.3456 20.68C57.3456 23.48 56.8256 25.96 55.7856 28.12C54.7456 30.28 53.4256 32.2 51.8256 33.88C50.2256 35.56 48.4656 37.04 46.5456 38.32C44.7056 39.52 42.9056 40.6 41.1456 41.56C39.7056 42.36 38.0656 43.28 36.2256 44.32C34.3856 45.36 32.5456 46.52 30.7056 47.8C28.9456 49 27.3056 50.28 25.7856 51.64C24.2656 52.92 23.1056 54.2 22.3056 55.48H58.6656V70H0.825625Z" fill="#D5D5E0"/>
</svg>
