<svg width="33" height="32" viewBox="0 0 33 32" fill="none" xmlns="http://www.w3.org/2000/svg">
<path d="M20.7566 14.6667V6.66675L16.7643 2.66675L12.772 6.66675V9.33341H4.78735V28.0001H28.7412V14.6667H20.7566ZM10.1104 25.3334H7.44889V22.6667H10.1104V25.3334ZM10.1104 20.0001H7.44889V17.3334H10.1104V20.0001ZM10.1104 14.6667H7.44889V12.0001H10.1104V14.6667ZM18.095 25.3334H15.4335V22.6667H18.095V25.3334ZM18.095 20.0001H15.4335V17.3334H18.095V20.0001ZM18.095 14.6667H15.4335V12.0001H18.095V14.6667ZM18.095 9.33341H15.4335V6.66675H18.095V9.33341ZM26.0796 25.3334H23.4181V22.6667H26.0796V25.3334ZM26.0796 20.0001H23.4181V17.3334H26.0796V20.0001Z" fill="white"/>
</svg>
