<svg width="59" height="12" viewBox="0 0 59 12" fill="none" xmlns="http://www.w3.org/2000/svg">
<path d="M5.922 11.196C4.326 11.196 3.04267 10.7387 2.072 9.824C1.11067 8.9 0.63 7.65867 0.63 6.1C0.63 4.532 1.11067 3.29067 2.072 2.376C3.04267 1.46133 4.354 1.004 6.006 1.004C6.75267 1.004 7.476 1.07867 8.176 1.228C8.876 1.368 9.44067 1.54533 9.87 1.76L9.898 4.168H9.772C9.52933 3.26267 9.114 2.60933 8.526 2.208C7.938 1.79733 7.238 1.592 6.426 1.592C5.29667 1.592 4.42867 1.998 3.822 2.81C3.21533 3.61267 2.912 4.71867 2.912 6.128C2.912 7.528 3.18733 8.62467 3.738 9.418C4.298 10.2113 5.08667 10.608 6.104 10.608C6.84133 10.608 7.45733 10.398 7.952 9.978C8.19467 9.76333 8.372 9.51133 8.484 9.222V7.08C8.484 6.87467 8.41867 6.72067 8.288 6.618C8.16667 6.506 7.98933 6.45 7.756 6.45H7.532V6.31H11.466V6.45H11.256C11.032 6.45 10.8593 6.506 10.738 6.618C10.6167 6.72067 10.556 6.87467 10.556 7.08V9.39C10.192 9.866 9.59 10.286 8.75 10.65C7.91 11.014 6.96733 11.196 5.922 11.196ZM14.9177 10.86C15.1603 10.86 15.3657 10.776 15.5337 10.608C15.711 10.4307 15.8043 10.2207 15.8137 9.978V2.18C15.795 1.93733 15.725 1.76 15.6037 1.648C15.3797 1.44267 15.151 1.34 14.9177 1.34H14.7357V1.2H20.0977C20.555 1.2 20.933 1.16733 21.2317 1.102C21.5303 1.02733 21.7123 0.975999 21.7777 0.947999V3.398L21.6377 3.384V3.23C21.6377 2.65133 21.423 2.24067 20.9937 1.998C20.7883 1.87667 20.5457 1.81133 20.2657 1.802H17.9137V5.876H19.7617C20.107 5.86667 20.3917 5.75 20.6157 5.526C20.8397 5.29267 20.9517 5.008 20.9517 4.672V4.546H21.0917V7.78H20.9517V7.668C20.9517 7.32267 20.8397 7.038 20.6157 6.814C20.401 6.59 20.1257 6.47333 19.7897 6.464H17.9137V10.398H19.7477C20.429 10.398 20.9983 10.202 21.4557 9.81C21.9223 9.418 22.2677 8.86267 22.4917 8.144H22.6317L21.9877 11H14.7357V10.86H14.9177ZM26.495 10.86C26.7377 10.86 26.943 10.776 27.111 10.608C27.2883 10.4307 27.3817 10.2207 27.391 9.978V2.222C27.3817 1.97933 27.2883 1.774 27.111 1.606C26.943 1.42867 26.7377 1.34 26.495 1.34H26.313V1.2H30.569L30.555 1.34H30.387C30.1443 1.34 29.9343 1.42867 29.757 1.606C29.5797 1.774 29.491 1.97933 29.491 2.222V10.398H31.325C32.0063 10.398 32.5757 10.202 33.033 9.81C33.4997 9.418 33.845 8.86267 34.069 8.144H34.209L33.565 11H26.313V10.86H26.495ZM37.8399 10.86C38.0826 10.86 38.2879 10.776 38.4559 10.608C38.6333 10.4307 38.7266 10.2207 38.7359 9.978V2.222C38.7266 1.97933 38.6333 1.774 38.4559 1.606C38.2879 1.42867 38.0826 1.34 37.8399 1.34H37.6579V1.2H41.9139L41.8999 1.34H41.7319C41.4893 1.34 41.2793 1.42867 41.1019 1.606C40.9246 1.774 40.8359 1.97933 40.8359 2.222V10.398H42.6699C43.3513 10.398 43.9206 10.202 44.3779 9.81C44.8446 9.418 45.1899 8.86267 45.4139 8.144H45.5539L44.9099 11H37.6579V10.86H37.8399ZM58.8289 10.86H58.9549V11H54.4889V10.86H54.6149C54.8202 10.86 54.9695 10.7993 55.0629 10.678C55.1655 10.5473 55.2169 10.426 55.2169 10.314C55.2169 10.202 55.1935 10.09 55.1469 9.978L54.4609 8.256H51.1849L50.4569 9.978C50.4102 10.0993 50.3869 10.216 50.3869 10.328C50.3869 10.4307 50.4382 10.5473 50.5409 10.678C50.6435 10.7993 50.7975 10.86 51.0029 10.86H51.1149V11H48.1189V10.86H48.2449C48.4595 10.86 48.6742 10.7947 48.8889 10.664C49.1035 10.5333 49.2809 10.3373 49.4209 10.076L52.6549 2.754C53.0935 1.83 53.3269 1.21867 53.3549 0.92H53.4809L57.6389 10.048C57.7789 10.3187 57.9562 10.524 58.1709 10.664C58.3855 10.7947 58.6049 10.86 58.8289 10.86ZM51.4229 7.668H54.2229L52.8649 4.224L51.4229 7.668Z" fill="#17171A"/>
</svg>
