<svg width="48" height="45" viewBox="0 0 48 45" fill="none" xmlns="http://www.w3.org/2000/svg">
<path d="M14.9288 0C6.68002 0 0 6.73063 0 14.9288V29.0986C0 37.2968 6.68002 44.0274 14.9288 44.0274C23.1776 44.0274 29.8071 37.2968 29.8071 29.0986V14.9288C29.8071 6.73063 23.127 0 14.9288 0ZM25.6067 29.0986C25.6067 34.9689 20.7992 39.7765 14.9288 39.7765C9.05851 39.7765 4.25092 34.9689 4.25092 29.0986V14.9288C4.25092 9.05851 9.05851 4.25092 14.9288 4.25092C20.7992 4.25092 25.6067 9.05851 25.6067 14.9288V29.0986Z" fill="#2D2D38" fill-opacity="0.4"/>
<path d="M14.9289 8.90674C13.765 8.90674 12.8035 9.86826 12.8035 11.0322V16.7507C12.8035 17.9146 13.765 18.8762 14.9289 18.8762C16.0929 18.8762 17.0544 17.9146 17.0544 16.7507V10.9816C17.0038 9.81765 16.0929 8.90674 14.9289 8.90674Z" fill="#2D2D38" fill-opacity="0.4"/>
<path d="M44.8876 34.0074L42.4585 36.4365V26.1128C42.4585 25.0501 41.5982 24.2404 40.5861 24.2404C39.574 24.2404 38.7137 25.1007 38.7137 26.1128V36.4365L36.2846 34.0074C35.5255 33.2483 34.3615 33.2989 33.6531 34.0074C32.894 34.7664 32.894 35.9304 33.6531 36.6389L39.2197 42.3068C39.574 42.661 40.0294 42.8634 40.5355 42.8634C41.0416 42.8634 41.497 42.661 41.8513 42.3068L47.4686 36.6895C48.177 35.9304 48.177 34.7664 47.4686 34.0074C46.8107 33.2483 45.5961 33.2483 44.8876 34.0074Z" fill="#2D2D38" fill-opacity="0.4"/>
<path d="M36.2342 10.02L38.6633 7.5909V17.9146C38.6633 18.9773 39.5236 19.787 40.5357 19.787C41.5478 19.787 42.4081 18.9267 42.4081 17.9146V7.5909L44.8372 10.02C45.1915 10.3742 45.6975 10.5767 46.153 10.5767C46.6084 10.5767 47.1145 10.3742 47.4688 10.02C48.1772 9.2609 48.1772 8.09696 47.4688 7.33786L41.9021 1.72057C41.1936 1.01209 39.9284 1.01209 39.2199 1.72057L33.6027 7.38847C32.8942 8.14756 32.8942 9.31151 33.6027 10.02C34.3111 10.7791 35.5257 10.7791 36.2342 10.02Z" fill="#2D2D38" fill-opacity="0.4"/>
</svg>
