<svg width="32" height="32" viewBox="0 0 32 32" fill="none" xmlns="http://www.w3.org/2000/svg">
<path d="M20.6667 1.33325H10C8.16002 1.33325 6.66669 2.82659 6.66669 4.66658V27.3332C6.66669 29.1732 8.16002 30.6666 10 30.6666H20.6667C22.5067 30.6666 24 29.1732 24 27.3332V4.66658C24 2.82659 22.5067 1.33325 20.6667 1.33325ZM15.3334 29.3332C14.2267 29.3332 13.3334 28.4399 13.3334 27.3332C13.3334 26.2266 14.2267 25.3332 15.3334 25.3332C16.44 25.3332 17.3334 26.2266 17.3334 27.3332C17.3334 28.4399 16.44 29.3332 15.3334 29.3332ZM21.3334 23.9999H9.33335V5.33325H21.3334V23.9999Z" fill="white"/>
</svg>
