<svg width="120" height="120" viewBox="0 0 120 120" fill="none" xmlns="http://www.w3.org/2000/svg">
<path d="M120 60C120 93.1375 93.1375 120 60 120C41.5594 120 25.0607 111.681 14.0543 98.5886C12.529 96.7767 11.1108 94.8734 9.8053 92.8876C3.60718 83.4421 0 72.1417 0 60C0 26.8625 26.8625 0 60 0C93.1375 0 120 26.8625 120 60Z" fill="white"/>
<path d="M19.7103 60H14.8123C14.8123 35.0839 35.0829 14.8132 59.999 14.8132C67.5475 14.8132 75.0182 16.712 81.6055 20.3046L79.2599 24.6048C73.3904 21.4032 66.73 19.7113 59.999 19.7113C37.7838 19.7113 19.7103 37.7847 19.7103 60Z" fill="#FFE152"/>
<path d="M59.9992 105.187C46.8312 105.187 34.347 99.4592 25.7466 89.4727L29.4581 86.2766C37.1266 95.181 48.2585 100.289 59.9992 100.289C82.2145 100.289 100.288 82.2153 100.288 60H105.186C105.186 84.9161 84.9153 105.187 59.9992 105.187Z" fill="#FFE152"/>
<path d="M21.0927 93.1173C21.0927 95.9289 19.0383 98.258 16.3521 98.691C16.0582 98.7377 15.7543 98.7625 15.4485 98.7625C14.9678 98.7625 14.5 98.7039 14.0541 98.5885C12.5289 96.7767 11.1107 94.8733 9.80518 92.8875C9.92603 89.8773 12.4044 87.4722 15.4485 87.4722C15.7543 87.4722 16.0582 87.4969 16.3521 87.5463C19.0383 87.9775 21.0927 90.3085 21.0927 93.1173Z" fill="#D3A489"/>
<path d="M21.092 93.1173C21.092 95.928 19.0394 98.258 16.3514 98.6901C15.8635 96.9149 15.6025 95.0463 15.6025 93.1173C15.6025 91.1892 15.8635 89.3206 16.3514 87.5454C19.0394 87.9775 21.092 90.3076 21.092 93.1173Z" fill="#BF8E75"/>
<path d="M17.4647 93.1175C17.4647 94.2317 16.561 95.1353 15.4468 95.1353C14.3326 95.1353 13.4299 94.2317 13.4299 93.1175C13.4299 92.0033 14.3326 91.1006 15.4468 91.1006C16.561 91.1006 17.4647 92.0033 17.4647 93.1175Z" fill="#BF8E75"/>
<path d="M54.395 93.1173C54.395 95.928 56.4476 98.258 59.1356 98.6901C59.4295 98.7377 59.7316 98.7625 60.0402 98.7625C63.1584 98.7625 65.6853 96.2365 65.6853 93.1173C65.6853 89.999 63.1584 87.4722 60.0402 87.4722C59.7316 87.4722 59.4295 87.4969 59.1356 87.5454C56.4476 87.9775 54.395 90.3076 54.395 93.1173Z" fill="#D3A489"/>
<path d="M54.3955 93.1173C54.3955 95.928 56.4481 98.258 59.1361 98.6901C59.6241 96.9149 59.885 95.0463 59.885 93.1173C59.885 91.1892 59.6241 89.3206 59.1361 87.5454C56.4481 87.9775 54.3955 90.3076 54.3955 93.1173Z" fill="#BF8E75"/>
<path d="M62.0574 93.1175C62.0574 94.2317 61.1547 95.1353 60.0405 95.1353C58.9263 95.1353 58.0227 94.2317 58.0227 93.1175C58.0227 92.0033 58.9263 91.1006 60.0405 91.1006C61.1547 91.1006 62.0574 92.0033 62.0574 93.1175Z" fill="#BF8E75"/>
<path d="M58.7476 90.117C58.7476 100.57 51.1121 109.24 41.1146 110.85C40.0178 111.03 38.8926 111.121 37.7436 111.121C26.1429 111.121 16.7405 101.718 16.7405 90.117C16.7405 84.6284 18.6466 76.3887 22.0936 72.6479C25.9315 68.4813 31.6315 69.1139 37.7436 69.1139C38.8926 69.1139 40.0178 69.2046 41.1146 69.3849C51.1121 70.9944 58.7476 79.6654 58.7476 90.117Z" fill="#BF8E75"/>
<path d="M58.7476 90.1171C58.7476 100.57 51.1121 109.24 41.1146 110.85C31.1179 109.24 23.4824 100.57 23.4824 90.1171C23.4824 83.6819 26.3773 77.9205 30.9376 74.0679C33.7812 71.6628 37.2739 70.0039 41.1146 69.385C50.4346 70.8846 57.7048 78.5247 58.6442 88.0233C58.7119 88.7127 58.7476 89.4113 58.7476 90.1171Z" fill="#D3A489"/>
<path d="M37.7436 100.462C35.9849 100.462 34.2261 100.021 32.6231 99.1397C32.1708 98.8916 32.006 98.3231 32.255 97.8717C32.5031 97.4186 33.0717 97.2538 33.5239 97.5028C36.1661 98.9557 39.322 98.9557 41.9642 97.5028C42.4164 97.2538 42.985 97.4195 43.2331 97.8717C43.4821 98.324 43.3173 98.8916 42.8651 99.1397C41.2611 100.021 39.5023 100.462 37.7436 100.462Z" fill="#BF8E75"/>
<path d="M33.2712 88.8949C33.2712 90.2105 32.2037 91.278 30.8881 91.278C29.5724 91.278 28.5059 90.2105 28.5059 88.8949C28.5059 87.5793 29.5724 86.5127 30.8881 86.5127C32.2037 86.5127 33.2712 87.5793 33.2712 88.8949Z" fill="#3D4159"/>
<path d="M46.9821 88.8949C46.9821 90.2105 45.9155 91.278 44.599 91.278C43.2834 91.278 42.2168 90.2105 42.2168 88.8949C42.2168 87.5793 43.2834 86.5127 44.599 86.5127C45.9155 86.5127 46.9821 87.5793 46.9821 88.8949Z" fill="#3D4159"/>
<path d="M32.785 88.4747C32.785 89.0386 32.3282 89.4955 31.7642 89.4955C31.2003 89.4955 30.7434 89.0386 30.7434 88.4747C30.7434 87.9107 31.2003 87.4539 31.7642 87.4539C32.3282 87.4539 32.785 87.9107 32.785 88.4747Z" fill="white"/>
<path d="M46.6132 88.4747C46.6132 89.0386 46.1563 89.4955 45.5923 89.4955C45.0284 89.4955 44.5715 89.0386 44.5715 88.4747C44.5715 87.9107 45.0284 87.4539 45.5923 87.4539C46.1563 87.4539 46.6132 87.9107 46.6132 88.4747Z" fill="white"/>
<path d="M40.1267 94.8935H35.3614C34.7938 94.8935 34.3333 94.4339 34.3333 93.8663C34.3333 93.2986 34.7938 92.8381 35.3614 92.8381H40.1267C40.6943 92.8381 41.1539 93.2986 41.1539 93.8663C41.1539 94.4339 40.6943 94.8935 40.1267 94.8935Z" fill="#BF8E75"/>
<path d="M36.5149 63.1136C42.8778 63.5677 47.9865 68.7084 48.3096 75.1784L48.3701 76.3924H52.0294L54.0015 89.5019L58.7759 88.0233L58.1342 75.1784C57.7963 68.3825 52.175 63.0559 45.3726 63.0807L36.5149 63.1136Z" fill="#2A2F4F"/>
<path d="M57.7304 58.0444C62.7969 63.111 62.7969 71.326 57.7304 76.3925C52.6639 81.459 44.4489 81.459 39.3823 76.3925L57.7304 58.0444Z" fill="#3D4159"/>
<path d="M39.3823 76.3915H23.4594L21.4874 89.5009L16.7129 88.0233L17.3528 75.1775C17.6916 68.3825 23.3129 63.055 30.1162 63.0807L53.1133 63.1667L56.1529 68.6388" fill="#3D4159"/>
<path d="M38.972 63.1136C32.61 63.5677 27.5014 68.7084 27.1773 75.1784L27.1178 76.3924H23.4575L21.4855 89.5019L16.7119 88.0233L17.3528 75.1784C17.6915 68.3825 23.3129 63.0559 30.1152 63.0807L38.972 63.1136Z" fill="#2A2F4F"/>
<path d="M74.1339 38.9538C74.1339 41.575 72.2195 43.7475 69.7128 44.1503C69.439 44.1952 69.157 44.2181 68.8696 44.2181C65.9619 44.2181 63.6062 41.8624 63.6062 38.9547C63.6062 36.0461 65.9619 33.6904 68.8696 33.6904C69.157 33.6904 69.439 33.7142 69.7128 33.7582C72.2195 34.161 74.1339 36.3336 74.1339 38.9538Z" fill="#F6CAAE"/>
<path d="M74.1338 38.9539C74.1338 41.575 72.2194 43.7476 69.7127 44.1504C69.2577 42.4951 69.0142 40.7529 69.0142 38.9539C69.0142 37.1558 69.2577 35.4135 69.7127 33.7573C72.2194 34.1611 74.1338 36.3336 74.1338 38.9539Z" fill="#EAB599"/>
<path d="M70.7511 38.9539C70.7511 39.993 69.9088 40.8353 68.8697 40.8353C67.8306 40.8353 66.9883 39.993 66.9883 38.9539C66.9883 37.9148 67.8306 37.0725 68.8697 37.0725C69.9088 37.0725 70.7511 37.9148 70.7511 38.9539Z" fill="#EAB599"/>
<path d="M105.188 38.9538C105.188 41.575 107.102 43.7475 109.609 44.1503C109.883 44.1952 110.165 44.2181 110.452 44.2181C113.36 44.2181 115.715 41.8624 115.715 38.9547C115.715 36.0461 113.36 33.6904 110.452 33.6904C110.165 33.6904 109.883 33.7142 109.609 33.7582C107.102 34.161 105.188 36.3336 105.188 38.9538Z" fill="#F6CAAE"/>
<path d="M105.188 38.9539C105.188 41.575 107.102 43.7476 109.609 44.1504C110.064 42.4951 110.307 40.7529 110.307 38.9539C110.307 37.1558 110.064 35.4135 109.609 33.7573C107.102 34.1611 105.188 36.3336 105.188 38.9539Z" fill="#EAB599"/>
<path d="M109.246 28.6992V36.157C109.246 45.9028 102.126 53.9888 92.8032 55.4884C92.7721 55.4939 92.7391 55.4994 92.708 55.504C91.7165 55.6624 90.6984 55.7411 89.6602 55.7411C78.8442 55.7411 70.0762 46.9731 70.0762 36.157V28.6992C70.0762 26.4213 70.4644 24.2332 71.1821 22.1998C73.86 14.5781 81.1229 9.11328 89.6593 9.11328H89.6611C90.6984 9.11328 91.7174 9.19293 92.7108 9.3504C102.079 10.8134 109.246 18.9204 109.246 28.6992Z" fill="#EAB599"/>
<path d="M112.333 38.9539C112.333 39.993 111.491 40.8353 110.452 40.8353C109.413 40.8353 108.571 39.993 108.571 38.9539C108.571 37.9148 109.413 37.0725 110.452 37.0725C111.491 37.0725 112.333 37.9148 112.333 38.9539Z" fill="#EAB599"/>
<path d="M109.246 28.6991V36.157C109.246 45.9028 102.126 53.9878 92.8033 55.4883C92.7722 55.4938 92.7392 55.4984 92.7081 55.5039C83.3404 54.04 76.1746 45.9339 76.1746 36.157V28.6991C76.1746 18.9203 83.3413 10.8134 92.7108 9.35034C102.079 10.8134 109.246 18.9203 109.246 28.6991Z" fill="#F6CAAE"/>
<path d="M85.4901 35.0162C85.4901 36.244 84.4949 37.2382 83.2681 37.2382C82.0413 37.2382 81.0461 36.244 81.0461 35.0162C81.0461 33.7894 82.0413 32.7952 83.2681 32.7952C84.4949 32.7952 85.4901 33.7894 85.4901 35.0162Z" fill="#3D4159"/>
<path d="M98.2755 35.0162C98.2755 36.244 97.2803 37.2382 96.0535 37.2382C94.8267 37.2382 93.8315 36.244 93.8315 35.0162C93.8315 33.7894 94.8267 32.7952 96.0535 32.7952C97.2803 32.7952 98.2755 33.7894 98.2755 35.0162Z" fill="#3D4159"/>
<path d="M85.0369 34.6243C85.0369 35.1498 84.6102 35.5764 84.0847 35.5764C83.5592 35.5764 83.1326 35.1498 83.1326 34.6243C83.1326 34.0988 83.5592 33.6721 84.0847 33.6721C84.6102 33.6721 85.0369 34.0988 85.0369 34.6243Z" fill="white"/>
<path d="M97.9312 34.6243C97.9312 35.1498 97.5055 35.5764 96.98 35.5764C96.4536 35.5764 96.0278 35.1498 96.0278 34.6243C96.0278 34.0988 96.4536 33.6721 96.98 33.6721C97.5055 33.6721 97.9312 34.0988 97.9312 34.6243Z" fill="white"/>
<path d="M91.8823 39.7385H87.4393C86.9101 39.7385 86.4807 39.31 86.4807 38.7808C86.4807 38.2516 86.9101 37.8223 87.4393 37.8223H91.8823C92.4124 37.8223 92.8409 38.2516 92.8409 38.7808C92.8409 39.31 92.4124 39.7385 91.8823 39.7385Z" fill="#EAB599"/>
<path d="M89.6614 45.8021C88.0207 45.8021 86.381 45.391 84.886 44.5698C84.4648 44.3372 84.311 43.808 84.5427 43.386C84.7743 42.9648 85.3044 42.811 85.7255 43.0427C88.1901 44.3976 91.1326 44.3976 93.5963 43.0427C94.0184 42.811 94.5475 42.9648 94.7792 43.386C95.0117 43.808 94.857 44.3381 94.4358 44.5698C92.9408 45.3919 91.3011 45.8021 89.6614 45.8021Z" fill="#EAB599"/>
<path d="M109.246 21.9305V29.5706H105.6V23.5876L79.2882 18.6978L73.7209 17.6632V29.5706H70.0762V21.9305C70.0762 13.2211 77.1349 6.16235 85.8425 6.16235H93.4798C93.6867 6.16235 93.8945 6.16602 94.1014 6.17609C102.52 6.50018 109.246 13.4289 109.246 21.9305Z" fill="#A35418"/>
<path d="M109.246 21.9307V29.5707H105.601V23.5878L79.2883 18.6979C80.7385 11.7354 86.7801 6.45917 94.1016 6.17627C102.52 6.50037 109.246 13.4291 109.246 21.9307Z" fill="#CC7A3B"/>
<path d="M108.445 69.1718L102.441 63.1686L95.4227 67.966L92.6587 63.9221L103.032 56.8323L111.909 65.7083L108.445 69.1718Z" fill="#FFE152"/>
<path d="M16.9666 63.1685L8.0896 54.2916L11.553 50.8281L17.5571 56.8322L24.5755 52.0348L27.3395 56.0787L16.9666 63.1685Z" fill="#FFE152"/>
</svg>
