<svg width="120" height="120" viewBox="0 0 120 120" fill="none" xmlns="http://www.w3.org/2000/svg">
<path d="M120 60C120 62.1304 119.89 64.2371 119.669 66.3107C119.214 70.6897 118.286 74.9268 116.938 78.9725C112.577 92.0691 103.824 103.158 92.4243 110.493C90.585 111.679 88.6752 112.764 86.7041 113.745C86.5128 113.841 86.3214 113.934 86.1282 114.029C85.1413 114.507 84.1397 114.96 83.1253 115.384C77.6056 117.691 71.6647 119.194 65.4538 119.756C63.6566 119.917 61.8393 120 60 120C26.8625 120 0 93.1375 0 60C0 26.8625 26.8625 0 60 0C93.1375 0 120 26.8625 120 60Z" fill="white"/>
<path d="M86.7042 113.745C80.2021 116.982 73.0308 119.072 65.4539 119.756C65.5637 117.921 66.4847 116.481 69.061 116.393C76.4081 116.147 82.5623 110.182 82.5623 110.182L86.7042 113.745Z" fill="#DD3033"/>
<path d="M71.9266 105.37V112.224C65.6323 115.795 58.6258 118.261 51.1761 119.355C41.1649 117.88 31.9565 113.932 24.1956 108.152C20.3979 105.323 16.9446 102.054 13.9124 98.4191C16.6507 90.064 24.1956 83.8824 33.2812 83.1481C33.8837 83.0987 34.4916 83.074 35.1059 83.074H49.6262C51.3428 83.074 53.0127 83.2653 54.6167 83.6324C64.5309 85.9002 71.9266 94.7726 71.9266 105.37Z" fill="#DD3033"/>
<path d="M71.9266 105.37V118.814C68.0722 119.591 64.0851 120 60 120C57.8714 120 55.7703 119.89 53.6984 119.672C42.7103 118.526 32.6056 114.413 24.1956 108.152V105.37C24.1956 93.056 34.1803 83.074 46.496 83.074H49.6262C55.0726 83.074 60.0641 85.0259 63.9359 88.2687V88.2705C66.2128 90.1766 68.1033 92.5277 69.473 95.1919C71.0422 98.2433 71.9266 101.704 71.9266 105.37Z" fill="#F74F4F"/>
<path d="M20.5434 58.4848C20.5434 62.1671 17.8536 65.2213 14.3306 65.788C13.9452 65.8502 13.5497 65.8823 13.145 65.8823C9.05811 65.8823 5.74756 62.5717 5.74756 58.4848C5.74756 54.3979 9.05811 51.0864 13.145 51.0864C13.5497 51.0864 13.9452 51.1194 14.3306 51.1816C17.8536 51.7484 20.5434 54.8016 20.5434 58.4848Z" fill="#D3A489"/>
<path d="M48.3519 91.1187L42.3671 100.719L36.3813 91.1187" fill="#3D4159"/>
<path d="M47.6303 118.722C44.2603 118.016 40.9937 117.027 37.8589 115.78L42.3669 98.2214L47.6303 118.722Z" fill="#3D4159"/>
<path d="M20.5435 58.4848C20.5435 62.1671 17.8537 65.2213 14.3307 65.788C13.6908 63.4607 13.3484 61.0117 13.3484 58.4848C13.3484 55.957 13.6899 53.508 14.3307 51.1816C17.8537 51.7484 20.5435 54.8016 20.5435 58.4848Z" fill="#BF8E75"/>
<path d="M15.7891 58.4849C15.7891 59.9451 14.6053 61.1289 13.145 61.1289C11.6848 61.1289 10.501 59.9451 10.501 58.4849C10.501 57.0246 11.6848 55.8408 13.145 55.8408C14.6053 55.8408 15.7891 57.0246 15.7891 58.4849Z" fill="#BF8E75"/>
<path d="M42.3641 92.2018L32.3262 97.7801L29.2729 83.5766L35.5104 79.9026" fill="#DD3033"/>
<path d="M42.3643 92.2018L52.403 97.7801L55.4563 83.5766L49.2197 79.9026" fill="#DD3033"/>
<path d="M64.1875 58.4848C64.1875 62.1671 66.8782 65.2213 70.4012 65.788C70.7857 65.8502 71.1821 65.8823 71.5859 65.8823C75.6728 65.8823 78.9843 62.5717 78.9843 58.4848C78.9843 54.3979 75.6728 51.0864 71.5859 51.0864C71.1821 51.0864 70.7857 51.1194 70.4012 51.1816C66.8782 51.7484 64.1875 54.8016 64.1875 58.4848Z" fill="#D3A489"/>
<path d="M64.1875 58.4848C64.1875 62.1671 66.8782 65.2213 70.4012 65.788C71.0411 63.4607 71.3826 61.0117 71.3826 58.4848C71.3826 55.957 71.0411 53.508 70.4012 51.1816C66.8782 51.7484 64.1875 54.8016 64.1875 58.4848Z" fill="#BF8E75"/>
<path d="M74.23 58.4849C74.23 59.9451 73.0462 61.1289 71.5859 61.1289C70.1257 61.1289 68.9419 59.9451 68.9419 58.4849C68.9419 57.0246 70.1257 55.8408 71.5859 55.8408C73.0462 55.8408 74.23 57.0246 74.23 58.4849Z" fill="#BF8E75"/>
<path d="M69.8924 54.5527C69.8924 68.2499 59.8848 79.6134 46.7836 81.7228C45.3471 81.959 43.8713 82.078 42.3661 82.078C27.1629 82.078 14.8408 69.7551 14.8408 54.5527C14.8408 47.3594 20.095 36.5617 24.6122 31.6581C29.6422 26.197 34.3562 27.0265 42.3661 27.0265C43.8713 27.0265 45.3471 27.1455 46.7836 27.3817C59.8848 29.492 69.8924 40.8546 69.8924 54.5527Z" fill="#BF8E75"/>
<path d="M50.3212 74.4844V84.2476C50.3212 87.8218 47.9646 90.843 44.7191 91.8464C43.9756 92.0762 43.1837 92.2017 42.3643 92.2017C37.9716 92.2017 34.4111 88.6403 34.4111 84.2476V74.4844H50.3212Z" fill="#BF8E75"/>
<path d="M50.321 83.6289V84.2478C50.321 87.822 47.9645 90.8433 44.7189 91.8467C41.7902 90.9458 39.5874 88.3997 39.1809 85.2833C39.7128 85.3162 40.2466 85.3327 40.784 85.3327C42.2891 85.3327 43.764 85.2128 45.2014 84.9766C46.972 84.6927 48.6832 84.2368 50.321 83.6289Z" fill="#D3A489"/>
<path d="M69.8923 54.5526C69.8923 68.2498 59.8846 79.6133 46.7834 81.7227C33.6823 79.6133 23.6755 68.2498 23.6755 54.5526C23.6755 46.1179 27.4695 38.5684 33.447 33.5184C37.1732 30.3671 41.7508 28.1927 46.7834 27.3816C58.9984 29.3472 68.5254 39.3604 69.7559 51.8079C69.8456 52.7106 69.8923 53.6279 69.8923 54.5526Z" fill="#D3A489"/>
<path d="M36.5038 52.9505C36.5038 54.6754 35.1058 56.0724 33.3819 56.0724C31.657 56.0724 30.259 54.6754 30.259 52.9505C30.259 51.2256 31.657 49.8276 33.3819 49.8276C35.1058 49.8276 36.5038 51.2256 36.5038 52.9505Z" fill="#3D4159"/>
<path d="M54.4728 52.9505C54.4728 54.6754 53.0748 56.0724 51.3509 56.0724C49.626 56.0724 48.228 54.6754 48.228 52.9505C48.228 51.2256 49.626 49.8276 51.3509 49.8276C53.0748 49.8276 54.4728 51.2256 54.4728 52.9505Z" fill="#3D4159"/>
<path d="M35.8675 52.3994C35.8675 53.1382 35.2678 53.7369 34.529 53.7369C33.7902 53.7369 33.1914 53.1382 33.1914 52.3994C33.1914 51.6605 33.7902 51.0618 34.529 51.0618C35.2678 51.0618 35.8675 51.6605 35.8675 52.3994Z" fill="white"/>
<path d="M53.9896 52.3994C53.9896 53.1382 53.3909 53.7369 52.652 53.7369C51.9132 53.7369 51.3145 53.1382 51.3145 52.3994C51.3145 51.6605 51.9132 51.0618 52.652 51.0618C53.3909 51.0618 53.9896 51.6605 53.9896 52.3994Z" fill="white"/>
<path d="M45.489 60.8121H39.2441C38.4998 60.8121 37.8965 60.2088 37.8965 59.4654C37.8965 58.7211 38.4998 58.1187 39.2441 58.1187H45.489C46.2324 58.1187 46.8357 58.7211 46.8357 59.4654C46.8357 60.2088 46.2324 60.8121 45.489 60.8121Z" fill="#BF8E75"/>
<path d="M51.4287 104.637H63.4285V108.311H51.4287V104.637Z" fill="#DD3033"/>
<path d="M40.7556 19.163C49.0933 19.759 55.7886 26.4946 56.2134 34.9742L56.2921 36.5654H61.0876L63.6722 53.7452L69.9298 51.808L69.0894 34.9742C68.6453 26.0679 61.279 19.087 52.3636 19.12L40.7556 19.163Z" fill="#2A2F4F"/>
<path d="M68.5593 12.5198C75.1987 19.1592 75.1987 29.9249 68.5593 36.5652C61.9189 43.2046 51.1533 43.2046 44.5129 36.5652L68.5593 12.5198Z" fill="#3D4159"/>
<path d="M44.5131 36.5645H23.6454L21.0609 53.7452L14.8042 51.8089L15.6437 34.9733C16.0869 26.0688 23.4541 19.0861 32.3704 19.12L62.5078 19.2326L66.493 26.4048" fill="#3D4159"/>
<path d="M43.9764 19.163C35.6387 19.759 28.9435 26.4946 28.5187 34.9742L28.4399 36.5654H23.6435L21.0599 53.7452L14.8022 51.808L15.6427 34.9742C16.0867 26.0679 23.4531 19.087 32.3685 19.12L43.9764 19.163Z" fill="#2A2F4F"/>
<path d="M33.3032 64.8027C33.3032 69.8079 37.3608 73.8646 42.366 73.8646C47.3712 73.8646 51.4288 69.8079 51.4288 64.8027" fill="#F2F0EC"/>
<path d="M82.564 89.1577H89.2977V110.182H82.564V89.1577Z" fill="#E8C934"/>
<path d="M89.2977 97.0422V110.182H85.6008V100.553C85.6008 98.6141 87.1728 97.0413 89.1128 97.0413H89.2977V97.0422Z" fill="#FFE152"/>
<path d="M119.669 66.3106C119.214 70.6896 118.286 74.9267 116.938 78.9724C116.321 79.9859 115.619 80.9655 114.837 81.8819C111.397 85.913 107 88.0507 102.37 88.0507C101.018 88.0507 99.6487 87.8695 98.2754 87.4996L99.5562 82.7407C105.265 84.2788 109.232 80.8574 111.088 78.6831C114.507 74.6795 115.754 69.3502 114.735 67.0723C113.995 65.4198 112.78 64.616 110.914 64.5501C109.227 64.4887 107.718 65.0664 107.703 65.0738L105.884 60.4943C106.121 60.3991 108.277 59.5687 110.89 59.62C114.732 59.6914 117.696 61.6231 119.234 65.0618C119.409 65.4564 119.554 65.873 119.669 66.3106Z" fill="#FFE152"/>
<path d="M69.4923 88.0509C64.8607 88.0509 60.4661 85.9131 57.0247 81.8821C52.5661 76.6581 50.6764 69.4263 52.6292 65.0611C54.1673 61.6242 57.1291 59.6924 60.9715 59.6201C63.5918 59.5698 65.7405 60.4001 65.9767 60.4944L65.0621 62.7814L64.1585 65.0739C64.1438 65.0684 62.6314 64.4898 60.9486 64.5502C59.0819 64.6171 57.8679 65.4182 57.1281 67.0725C56.1092 69.3503 57.3552 74.6787 60.7729 78.6832C62.6305 80.8585 66.5974 84.278 72.3057 82.7408L73.5875 87.4988C72.2142 87.8687 70.8427 88.0509 69.4923 88.0509Z" fill="#E8C934"/>
<path d="M109.091 56.2114C109.091 58.2219 108.998 60.1967 108.823 62.1248C107.357 78.152 100.025 90.9493 90.6124 94.182C89.0991 94.702 87.5344 94.9749 85.9313 94.9749C73.1405 94.9749 62.7712 77.6201 62.7712 56.2114H109.091Z" fill="#E8C934"/>
<path d="M108.822 62.125C107.358 78.1522 100.025 90.9495 90.6116 94.1822C82.0963 91.258 75.2857 80.507 72.9776 66.6184C72.5876 64.2682 74.3857 62.125 76.7679 62.125H108.822Z" fill="#FFE152"/>
<path d="M113.362 56.6006C113.362 57.1279 113.148 57.6068 112.802 57.951C112.455 58.298 111.979 58.5113 111.45 58.5113H61.3971C60.3424 58.5113 59.4873 57.6553 59.4873 56.6006C59.4873 56.0742 59.7006 55.5944 60.0476 55.2493C60.3918 54.9023 60.8698 54.689 61.3971 54.689H111.45C112.506 54.689 113.362 55.545 113.362 56.6006Z" fill="#E8C934"/>
<path d="M113.362 56.6006C113.362 57.1279 113.148 57.6068 112.802 57.951C112.455 58.298 111.979 58.5113 111.45 58.5113H73.3878C72.3331 58.5113 71.478 57.6553 71.478 56.6006C71.478 56.0742 71.6913 55.5944 72.0374 55.2493C72.3826 54.9023 72.8605 54.689 73.3878 54.689H111.45C112.506 54.689 113.362 55.545 113.362 56.6006Z" fill="#FFE152"/>
<path d="M85.9304 64.8743L88.7429 70.5734L95.0317 71.4871L90.4815 75.9219L91.5554 82.1851L85.9304 79.2288L80.3063 82.1851L81.3802 75.9219L76.8301 71.4871L83.1188 70.5734L85.9304 64.8743Z" fill="#E8C934"/>
<path d="M92.4491 102.979V109.952C92.4491 110.135 92.4418 110.315 92.4244 110.493C90.5851 111.679 88.6753 112.764 86.7042 113.745C86.5128 113.841 86.3215 113.934 86.1283 114.029C85.1414 114.507 84.1398 114.96 83.1254 115.384C81.2348 114.314 79.9595 112.281 79.9595 109.952V102.979C79.9595 99.5316 82.7564 96.7346 86.2043 96.7346C87.0273 96.7346 87.811 96.8939 88.5306 97.1832C89.3189 97.4991 90.0294 97.9715 90.6199 98.5638C91.7487 99.6954 92.4491 101.255 92.4491 102.979Z" fill="#EAB599"/>
<path d="M92.449 102.979V109.952C92.449 110.135 92.4417 110.315 92.4243 110.493C90.585 111.679 88.6752 112.764 86.704 113.745C86.5127 113.841 86.3214 113.934 86.1282 114.029C85.1824 112.937 84.6121 111.509 84.6121 109.952V102.979C84.6121 100.354 86.2335 98.106 88.5305 97.1831C89.3188 97.499 90.0292 97.9714 90.6198 98.5637C91.7486 99.6953 92.449 101.255 92.449 102.979Z" fill="#F6CAAE"/>
</svg>
