<svg width="120" height="120" viewBox="0 0 120 120" fill="none" xmlns="http://www.w3.org/2000/svg">
<path d="M120 60C120 93.1375 93.1375 120 60 120C26.8625 120 0 93.1375 0 60C0 26.8625 26.8625 0 60 0C93.1375 0 120 26.8625 120 60Z" fill="white"/>
<path d="M89.5598 88.6506V95.5051C83.5722 98.9045 76.9401 101.299 69.8951 102.468C68.3836 102.718 66.8556 102.914 65.3102 103.048C64.348 103.133 63.3784 103.195 62.4006 103.231C61.605 103.266 60.804 103.281 60.001 103.281C58.2084 103.281 56.4378 103.202 54.6864 103.048C50.2443 102.658 45.9413 101.785 41.8297 100.479C37.838 99.213 34.0248 97.5376 30.4414 95.5051V88.6506C30.4414 78.3353 37.4461 69.6561 46.9603 67.1119C47.3082 67.0185 47.6579 66.9324 48.0131 66.8574C48.9589 66.6514 49.9284 66.5095 50.9153 66.428C51.5178 66.3795 52.1248 66.3547 52.74 66.3547H67.2593C68.8835 66.3547 70.4655 66.5259 71.989 66.8574C72.0768 66.8738 72.1647 66.894 72.2508 66.9132C72.5081 66.9718 72.7653 67.0359 73.0171 67.1046C73.0244 67.1064 73.029 67.1064 73.0372 67.1091C75.5467 67.7802 77.8831 68.8798 79.9604 70.3226C85.7612 74.3482 89.5598 81.0563 89.5598 88.6506Z" fill="#3D4159"/>
<path d="M73.0903 66.8574L73.0372 67.1092L65.3102 103.048C63.5615 103.202 61.7891 103.281 60.001 103.281C58.2084 103.281 56.4378 103.202 54.6864 103.048L46.9603 67.1119L46.9062 66.8574H73.0903Z" fill="#F2F0EC"/>
<path d="M38.1767 41.7656C38.1767 45.4487 35.4869 48.502 31.9639 49.0687C31.5794 49.131 31.183 49.1639 30.7792 49.1639C26.6923 49.1639 23.3809 45.8525 23.3809 41.7656C23.3809 37.6786 26.6923 34.3672 30.7792 34.3672C31.183 34.3672 31.5794 34.4001 31.9639 34.4624C35.4869 35.0291 38.1767 38.0833 38.1767 41.7656Z" fill="#F6CAAE"/>
<path d="M65.9856 74.4004L59.9999 84.0006L54.0142 74.4004" fill="#F74F4F"/>
<path d="M65.5251 103.026C63.706 103.195 61.8621 103.281 60.0009 103.281C58.1368 103.281 56.293 103.195 54.4729 103.029L60.0009 81.502L65.5251 103.026Z" fill="#F74F4F"/>
<path d="M38.1766 41.7656C38.1766 45.4487 35.4868 48.502 31.9639 49.0687C31.3239 46.7424 30.9824 44.2933 30.9824 41.7656C30.9824 39.2378 31.3239 36.7897 31.9639 34.4624C35.4868 35.0291 38.1766 38.0833 38.1766 41.7656Z" fill="#EAB599"/>
<path d="M33.4233 41.7654C33.4233 43.2256 32.2395 44.4094 30.7792 44.4094C29.319 44.4094 28.1343 43.2256 28.1343 41.7654C28.1343 40.3051 29.319 39.1213 30.7792 39.1213C32.2395 39.1213 33.4233 40.3051 33.4233 41.7654Z" fill="#EAB599"/>
<path d="M59.9983 75.4824L49.9604 81.0616L46.9062 66.8572L53.1437 63.1841" fill="#D8D5D0"/>
<path d="M59.998 75.4824L70.0359 81.0616L73.0901 66.8572L66.8526 63.1841" fill="#D8D5D0"/>
<path d="M81.8215 41.7656C81.8215 45.4487 84.5114 48.502 88.0343 49.0687C88.4197 49.131 88.8152 49.1639 89.219 49.1639C93.3059 49.1639 96.6174 45.8525 96.6174 41.7656C96.6174 37.6786 93.3059 34.3672 89.219 34.3672C88.8152 34.3672 88.4197 34.4001 88.0343 34.4624C84.5114 35.0291 81.8215 38.0833 81.8215 41.7656Z" fill="#F6CAAE"/>
<path d="M81.8218 41.7656C81.8218 45.4487 84.5116 48.502 88.0345 49.0687C88.6745 46.7424 89.016 44.2933 89.016 41.7656C89.016 39.2378 88.6745 36.7897 88.0345 34.4624C84.5116 35.0291 81.8218 38.0833 81.8218 41.7656Z" fill="#EAB599"/>
<path d="M91.8642 41.7651C91.8642 43.2254 90.6804 44.4092 89.2192 44.4092C87.759 44.4092 86.5752 43.2254 86.5752 41.7651C86.5752 40.3049 87.759 39.1211 89.2192 39.1211C90.6804 39.1211 91.8642 40.3049 91.8642 41.7651Z" fill="#EAB599"/>
<path d="M87.5253 37.8334C87.5253 51.5315 77.5186 62.8941 64.4174 65.0035C62.98 65.2397 61.5042 65.3596 59.9991 65.3596C44.7967 65.3596 32.4737 53.0366 32.4737 37.8334C32.4737 30.6401 31.8567 19.8423 36.3739 14.9388C41.4038 9.47857 51.9891 10.3071 59.9991 10.3071C61.5042 10.3071 62.98 10.4271 64.4174 10.6623C77.5186 12.7726 87.5253 24.1352 87.5253 37.8334Z" fill="#EAB599"/>
<path d="M67.9551 57.7661V67.5284C67.9551 71.1026 65.5986 74.1238 62.3521 75.1273C61.6087 75.358 60.8168 75.4825 59.9983 75.4825C55.6047 75.4825 52.0442 71.922 52.0442 67.5284V57.7661H67.9551Z" fill="#EAB599"/>
<path d="M67.955 66.9104V67.5284C67.955 71.1026 65.5984 74.1238 62.352 75.1273C59.4232 74.2273 57.2214 71.6803 56.814 68.5648C57.3459 68.5968 57.8806 68.6133 58.4171 68.6133C59.9222 68.6133 61.3971 68.4943 62.8345 68.2581C64.606 67.9733 66.3171 67.5183 67.955 66.9104Z" fill="#F6CAAE"/>
<path d="M87.5254 37.8331C87.5254 51.5312 77.5187 62.8939 64.4175 65.0032C51.3163 62.8939 41.3096 51.5312 41.3096 37.8331C41.3096 29.3993 45.1035 21.8489 51.0801 16.7998C54.8063 13.6486 59.3839 11.4733 64.4175 10.6621C76.6315 12.6287 86.1585 22.6409 87.3899 35.0884C87.4796 35.992 87.5254 36.9084 87.5254 37.8331Z" fill="#F6CAAE"/>
<path d="M59.9989 52.6145C57.6945 52.6145 55.3892 52.0377 53.289 50.8823C52.6958 50.5564 52.4797 49.812 52.8056 49.2197C53.1316 48.6273 53.8759 48.4113 54.4682 48.7363C57.9317 50.6406 62.0671 50.6406 65.5305 48.7363C66.122 48.4104 66.8672 48.6264 67.1931 49.2197C67.5191 49.812 67.3021 50.5564 66.7097 50.8823C64.6095 52.0377 62.3042 52.6145 59.9989 52.6145Z" fill="#EAB599"/>
<path d="M54.1369 36.2311C54.1369 37.9559 52.7398 39.3539 51.015 39.3539C49.2901 39.3539 47.8921 37.9559 47.8921 36.2311C47.8921 34.5071 49.2901 33.1091 51.015 33.1091C52.7398 33.1091 54.1369 34.5071 54.1369 36.2311Z" fill="#3D4159"/>
<path d="M72.1071 36.2311C72.1071 37.9559 70.709 39.3539 68.9842 39.3539C67.2593 39.3539 65.8613 37.9559 65.8613 36.2311C65.8613 34.5071 67.2593 33.1091 68.9842 33.1091C70.709 33.1091 72.1071 34.5071 72.1071 36.2311Z" fill="#3D4159"/>
<path d="M53.5008 35.6808C53.5008 36.4196 52.902 37.0184 52.1632 37.0184C51.4244 37.0184 50.8247 36.4196 50.8247 35.6808C50.8247 34.941 51.4244 34.3423 52.1632 34.3423C52.902 34.3423 53.5008 34.941 53.5008 35.6808Z" fill="white"/>
<path d="M71.6236 35.6808C71.6236 36.4196 71.0239 37.0184 70.2851 37.0184C69.5463 37.0184 68.9475 36.4196 68.9475 35.6808C68.9475 34.941 69.5463 34.3423 70.2851 34.3423C71.0239 34.3423 71.6236 34.941 71.6236 35.6808Z" fill="white"/>
<path d="M63.1218 44.0927H56.877C56.1327 44.0927 55.5303 43.4902 55.5303 42.7459C55.5303 42.0025 56.1327 41.3992 56.877 41.3992H63.1218C63.8661 41.3992 64.4686 42.0025 64.4686 42.7459C64.4686 43.4902 63.8661 44.0927 63.1218 44.0927Z" fill="#EAB599"/>
<path d="M87.5243 22.1613V32.8986H82.401V24.4904L45.4219 17.6184L37.5969 16.1636V32.8986H32.4736V22.1613C32.4736 9.92065 42.3952 0 54.6321 0H65.3667C65.6578 0 65.949 0.00549316 66.241 0.0201416C78.0715 0.475159 87.5243 10.2127 87.5243 22.1613Z" fill="#2A2F4F"/>
<path d="M87.5245 22.1611V32.8984H82.4012V24.4902L45.4221 17.6183C47.4592 7.83221 55.9498 0.416443 66.2412 0.0200195C78.0717 0.475037 87.5245 10.2126 87.5245 22.1611Z" fill="#3D4159"/>
<path d="M79.9602 70.3227L73.47 86.0249H76.6533L69.8949 102.468C68.3834 102.718 66.8553 102.914 65.3099 103.048C64.3477 103.133 63.3782 103.195 62.4004 103.231L73.0168 67.1046L73.0901 66.8574L79.9602 70.3227Z" fill="#2A2F4F"/>
<path d="M39.9629 70.3227L46.4531 86.0249H43.2698L50.0282 102.468C51.5397 102.718 53.0677 102.914 54.6132 103.048C55.5754 103.133 56.5449 103.195 57.5227 103.231L46.9062 67.1046L46.833 66.8574L39.9629 70.3227Z" fill="#2A2F4F"/>
<path d="M92.5158 100.055V110.434C83.1481 116.488 71.986 120 60.0009 120C51.7602 120 43.9086 118.339 36.7602 115.33C33.5 113.96 30.39 112.31 27.4539 110.412V100.055H92.5158Z" fill="#A35418"/>
<path d="M92.5159 108.137V110.434C83.1482 116.488 71.9861 120 60.0009 120C51.7603 120 43.9087 118.339 36.7603 115.33V108.137H92.5159Z" fill="#CC7A3B"/>
<path d="M21.428 95.0867H98.5428V103.412H21.428V95.0867Z" fill="#CC7A3B"/>
<path d="M42.5371 52.2172H53.3147C57.007 52.2172 59.9999 49.2234 59.9999 45.5311V44.2256H49.2223C45.53 44.2256 42.5371 47.2184 42.5371 50.9108V52.2172Z" fill="#3D4159"/>
<path d="M77.4628 52.2172H66.6861C62.9938 52.2172 60 49.2234 60 45.5311V44.2256H70.7776C74.4699 44.2256 77.4628 47.2184 77.4628 50.9108V52.2172Z" fill="#3D4159"/>
</svg>
