<svg width="120" height="120" viewBox="0 0 120 120" fill="none" xmlns="http://www.w3.org/2000/svg">
<path d="M120 60C120 67.998 118.435 75.6345 115.592 82.6117C109.296 98.074 96.7346 110.322 81.0608 116.197C78.4726 117.169 75.7983 117.965 73.0527 118.575C68.8504 119.507 64.4843 120 60 120C57.0831 120 54.213 119.792 51.4069 119.39C50.6671 119.285 49.9319 119.165 49.2023 119.032C48.1201 118.835 47.0471 118.609 45.9869 118.354C45.1666 118.158 44.3536 117.946 43.548 117.715C43.5086 117.706 43.4665 117.693 43.4253 117.681C42.4896 117.412 41.564 117.122 40.6485 116.809C38.3212 116.018 36.059 115.087 33.8718 114.027C32.4142 113.321 30.9897 112.56 29.6008 111.739C23.6426 108.233 18.3453 103.724 13.9343 98.4439C5.23315 88.0334 0 74.6274 0 60C0 26.8625 26.8625 0 60 0C93.1375 0 120 26.8625 120 60Z" fill="white"/>
<path d="M73.0527 94.4943V118.575C68.8504 119.507 64.4843 120 60 120C41.4908 120 24.9408 111.619 13.9343 98.4439V94.4943C13.9343 84.1791 20.939 75.4999 30.4532 72.9547C30.8011 72.8622 31.1508 72.7762 31.506 72.7002C32.4518 72.4951 33.4213 72.3523 34.4083 72.2717C35.0107 72.2232 35.6177 72.1985 36.2329 72.1985H50.7523C52.3764 72.1985 53.9584 72.3697 55.4819 72.7002C55.5698 72.7176 55.6577 72.7368 55.7437 72.757C56.001 72.8156 56.2582 72.8796 56.51 72.9474C56.5173 72.9501 56.5228 72.9501 56.5302 72.9529C59.0396 73.624 61.376 74.7235 63.4534 76.1655C69.2551 80.192 73.0527 86.9 73.0527 94.4943Z" fill="#3D4159"/>
<path d="M56.5833 72.7002L56.5302 72.9529L48.8031 108.891C47.0544 109.046 45.282 109.124 43.494 109.124C41.7014 109.124 39.9307 109.046 38.1793 108.891L30.4532 72.9547L30.3992 72.7002H56.5833Z" fill="#DDE8ED"/>
<path d="M49.4788 80.2432L43.493 89.8434L37.5073 80.2432" fill="#F74F4F"/>
<path d="M49.019 108.869C48.0147 108.962 47.0031 113.924 45.9868 118.354C45.1665 118.158 44.3535 117.946 43.5479 117.715C43.5085 117.706 43.4664 117.693 43.4252 117.681C42.4895 117.412 41.5639 117.122 40.6484 116.809C39.7466 112.847 38.853 108.952 37.9668 108.872L43.4938 87.345L49.019 108.869Z" fill="#F74F4F"/>
<path d="M43.4912 81.3263L33.4534 86.9046L30.3992 72.7011L36.6367 69.0271" fill="#BFD5DE"/>
<path d="M43.4912 81.3263L53.53 86.9046L56.5833 72.7011L50.3458 69.0271" fill="#BFD5DE"/>
<path d="M51.4481 63.6099V73.3721C51.4481 76.9464 49.0915 79.9676 45.845 80.971C45.1025 81.2017 44.3097 81.3262 43.4912 81.3262C39.0976 81.3262 35.5371 77.7657 35.5371 73.3721V63.6099H51.4481Z" fill="#EAB599"/>
<path d="M51.448 72.7542V73.3721C51.448 76.9464 49.0914 79.9676 45.845 80.971C42.9162 80.071 40.7144 77.524 40.3079 74.4085C40.8389 74.4406 41.3735 74.457 41.91 74.457C43.4152 74.457 44.8901 74.338 46.3275 74.1018C48.099 73.8171 49.8101 73.3611 51.448 72.7542Z" fill="#F6CAAE"/>
<path d="M21.6696 47.6093C21.6696 51.2916 18.9798 54.3458 15.4568 54.9125C15.0723 54.9747 14.6759 55.0077 14.2722 55.0077C10.1852 55.0077 6.87378 51.6962 6.87378 47.6093C6.87378 43.5224 10.1852 40.2109 14.2722 40.2109C14.6759 40.2109 15.0723 40.2439 15.4568 40.3062C18.9798 40.8729 21.6696 43.9261 21.6696 47.6093Z" fill="#F6CAAE"/>
<path d="M21.6696 47.6093C21.6696 51.2916 18.9797 54.3458 15.4568 54.9125C14.8168 52.5852 14.4753 50.1362 14.4753 47.6093C14.4753 45.0815 14.8168 42.6325 15.4568 40.3062C18.9797 40.8729 21.6696 43.9261 21.6696 47.6093Z" fill="#EAB599"/>
<path d="M16.9163 47.6094C16.9163 49.0696 15.7325 50.2534 14.2722 50.2534C12.812 50.2534 11.6282 49.0696 11.6282 47.6094C11.6282 46.1491 12.812 44.9653 14.2722 44.9653C15.7325 44.9653 16.9163 46.1491 16.9163 47.6094Z" fill="#EAB599"/>
<path d="M65.3147 47.6093C65.3147 51.2916 68.0045 54.3458 71.5275 54.9125C71.9129 54.9747 72.3084 55.0077 72.7131 55.0077C76.8 55.0077 80.1105 51.6962 80.1105 47.6093C80.1105 43.5224 76.8 40.2109 72.7131 40.2109C72.3084 40.2109 71.9129 40.2439 71.5275 40.3062C68.0045 40.8729 65.3147 43.9261 65.3147 47.6093Z" fill="#F6CAAE"/>
<path d="M65.3147 47.6093C65.3147 51.2916 68.0045 54.3458 71.5275 54.9125C72.1674 52.5852 72.5098 50.1362 72.5098 47.6093C72.5098 45.0815 72.1674 42.6325 71.5275 40.3062C68.0045 40.8729 65.3147 43.9261 65.3147 47.6093Z" fill="#EAB599"/>
<path d="M71.0184 33.1962V43.678C71.0184 57.3752 61.0117 68.7388 47.9096 70.8472C47.8657 70.8546 47.819 70.8619 47.775 70.8692C46.3816 71.0917 44.9515 71.2025 43.4913 71.2025C28.2908 71.2025 15.9678 58.8785 15.9678 43.678V33.1962C15.9678 29.9955 16.5134 26.9193 17.5223 24.062C21.287 13.3503 31.4942 5.66992 43.4913 5.66992H43.494C44.9515 5.66992 46.3834 5.78253 47.7796 6.00317C60.9458 8.06036 71.0184 19.4532 71.0184 33.1962Z" fill="#EAB599"/>
<path d="M75.3571 47.6094C75.3571 49.0696 74.1733 50.2534 72.7131 50.2534C71.2528 50.2534 70.0681 49.0696 70.0681 47.6094C70.0681 46.1491 71.2528 44.9653 72.7131 44.9653C74.1733 44.9653 75.3571 46.1491 75.3571 47.6094Z" fill="#EAB599"/>
<path d="M71.0183 33.1962V43.678C71.0183 57.3752 61.0116 68.7388 47.9095 70.8472C47.8655 70.8546 47.8188 70.8619 47.7749 70.8692C34.6087 68.812 24.5388 57.4192 24.5388 43.678V33.1962C24.5388 19.4532 34.6115 8.06036 47.7795 6.00317C60.9457 8.06036 71.0183 19.4532 71.0183 33.1962Z" fill="#F6CAAE"/>
<path d="M37.631 42.0748C37.631 43.7997 36.233 45.1977 34.5081 45.1977C32.7833 45.1977 31.3853 43.7997 31.3853 42.0748C31.3853 40.35 32.7833 38.9529 34.5081 38.9529C36.233 38.9529 37.631 40.35 37.631 42.0748Z" fill="#3D4159"/>
<path d="M55.6 42.0748C55.6 43.7997 54.202 45.1977 52.4772 45.1977C50.7532 45.1977 49.3552 43.7997 49.3552 42.0748C49.3552 40.35 50.7532 38.9529 52.4772 38.9529C54.202 38.9529 55.6 40.35 55.6 42.0748Z" fill="#3D4159"/>
<path d="M36.9937 41.5236C36.9937 42.2625 36.395 42.8621 35.6561 42.8621C34.9173 42.8621 34.3176 42.2625 34.3176 41.5236C34.3176 40.7848 34.9173 40.186 35.6561 40.186C36.395 40.186 36.9937 40.7848 36.9937 41.5236Z" fill="white"/>
<path d="M55.1165 41.5236C55.1165 42.2625 54.5168 42.8621 53.778 42.8621C53.0392 42.8621 52.4404 42.2625 52.4404 41.5236C52.4404 40.7848 53.0392 40.186 53.778 40.186C54.5168 40.186 55.1165 40.7848 55.1165 41.5236Z" fill="white"/>
<path d="M46.615 48.7125H40.3702C39.6259 48.7125 39.0234 48.1091 39.0234 47.3648C39.0234 46.6214 39.6259 46.0181 40.3702 46.0181H46.615C47.3593 46.0181 47.9617 46.6214 47.9617 47.3648C47.9617 48.1091 47.3593 48.7125 46.615 48.7125Z" fill="#EAB599"/>
<path d="M43.493 57.2342C41.1877 57.2342 38.8833 56.6565 36.7822 55.5011C36.1889 55.1761 35.9729 54.4308 36.2988 53.8385C36.6247 53.2461 37.369 53.0301 37.9614 53.3551C41.4248 55.2594 45.5603 55.2594 49.0237 53.3551C49.6151 53.0301 50.3604 53.2461 50.6863 53.8385C51.0122 54.4308 50.7962 55.1761 50.2029 55.5011C48.1027 56.6565 45.7974 57.2342 43.493 57.2342Z" fill="#EAB599"/>
<path d="M71.0184 23.6838V34.4211H65.8951V26.0129L28.9152 19.1409L21.0911 17.6862V34.4211H15.9678V23.6838C15.9678 11.4441 25.8884 1.52344 38.1254 1.52344H48.8599C49.1511 1.52344 49.4422 1.52802 49.7343 1.54266C61.5647 1.99768 71.0184 11.7352 71.0184 23.6838Z" fill="#E8C934"/>
<path d="M71.0183 23.6838V34.4211H65.895V26.0129L28.915 19.141C30.953 9.35492 39.4436 1.93915 49.7341 1.54272C61.5646 1.99774 71.0183 11.7353 71.0183 23.6838Z" fill="#FFE152"/>
<path d="M30.3992 71.4761L43.4254 117.681C40.1139 116.733 36.9205 115.504 33.8718 114.027L26.836 91.8685H30.0193L23.53 74.9413L30.3992 71.4761Z" fill="#2A2F4F"/>
<path d="M56.9631 91.8685H60.1464L51.4067 119.39C48.727 119.006 46.1022 118.444 43.5479 117.715L56.5831 71.4761L63.4532 74.9413L56.9631 91.8685Z" fill="#2A2F4F"/>
<path d="M115.592 70.1064V82.6116C109.296 98.074 96.7345 110.322 81.0607 116.197C78.4725 117.169 75.7982 117.965 73.0526 118.574C68.8503 119.507 64.4841 120 59.9999 120L49.2021 118.776V70.1064C49.2021 66.8032 51.8819 64.1262 55.1824 64.1262H109.611C112.915 64.1262 115.592 66.8032 115.592 70.1064Z" fill="#D8D5D0"/>
<path d="M81.0608 111.739V116.197C78.4726 117.169 75.7983 117.965 73.0527 118.575C68.8504 119.508 64.4843 120 60 120C57.0831 120 54.213 119.792 51.4069 119.39C49.5721 119.128 47.7649 118.781 45.9869 118.354C45.1666 118.158 44.3536 117.946 43.548 117.715C43.5086 117.706 43.4665 117.693 43.4253 117.681C42.4896 117.412 41.564 117.123 40.6485 116.809C38.3212 116.018 36.059 115.087 33.8718 114.027C32.4142 113.321 30.9897 112.56 29.6008 111.739H81.0608Z" fill="#D8D5D0"/>
<path d="M115.592 70.1064V82.6116C109.296 98.074 96.7346 110.322 81.0607 116.197C78.4725 117.169 75.7983 117.965 73.0526 118.574C68.8503 119.507 64.4842 120 59.9999 120H52.6309V70.1064C52.6309 66.8032 55.3097 64.1262 58.6111 64.1262H109.611C112.915 64.1262 115.592 66.8032 115.592 70.1064Z" fill="#F2F0EC"/>
<path d="M90.2335 91.9024C90.2335 95.2844 87.4924 98.0255 84.1114 98.0255C80.7303 98.0255 77.9893 95.2844 77.9893 91.9024C77.9893 88.5214 80.7303 85.7803 84.1114 85.7803C87.4924 85.7803 90.2335 88.5214 90.2335 91.9024Z" fill="#FFE152"/>
<path d="M65.647 5.50049H119.999V46.3559H65.647V5.50049Z" fill="#DDE8ED"/>
<path d="M92.0186 43.8024L86.1821 57.6644L111.717 43.0728L92.0186 43.8024Z" fill="#DDE8ED"/>
<path d="M87.8376 25.9289C87.8376 27.5933 86.4881 28.9428 84.8237 28.9428C83.1583 28.9428 81.8088 27.5933 81.8088 25.9289C81.8088 24.2636 83.1583 22.9141 84.8237 22.9141C86.4881 22.9141 87.8376 24.2636 87.8376 25.9289Z" fill="#3D4159"/>
<path d="M95.8376 25.9289C95.8376 27.5933 94.4881 28.9428 92.8228 28.9428C91.1583 28.9428 89.8088 27.5933 89.8088 25.9289C89.8088 24.2636 91.1583 22.9141 92.8228 22.9141C94.4881 22.9141 95.8376 24.2636 95.8376 25.9289Z" fill="#3D4159"/>
<path d="M103.837 25.9289C103.837 27.5933 102.487 28.9428 100.823 28.9428C99.1583 28.9428 97.8088 27.5933 97.8088 25.9289C97.8088 24.2636 99.1583 22.9141 100.823 22.9141C102.487 22.9141 103.837 24.2636 103.837 25.9289Z" fill="#3D4159"/>
</svg>
