<svg width="120" height="120" viewBox="0 0 120 120" fill="none" xmlns="http://www.w3.org/2000/svg">
<path d="M120 60C120 65.4886 119.263 70.8051 117.881 75.8569C117.032 78.9725 115.935 81.9873 114.615 84.8795C114.406 85.3372 114.194 85.7904 113.973 86.2408C113.302 87.6169 112.582 88.9645 111.811 90.2792C110.848 91.9226 109.81 93.5165 108.701 95.0546C107.165 97.1851 105.493 99.2102 103.697 101.116C92.7548 112.741 77.2238 120 60 120C26.8625 120 0 93.1375 0 60C0 26.8625 26.8625 0 60 0C93.1375 0 120 26.8625 120 60Z" fill="white"/>
<path d="M61.6646 65.853H116.043C118.229 65.853 119.999 64.0814 119.999 61.897V44.0955C119.999 41.911 118.229 40.1404 116.043 40.1404H61.6646C59.4801 40.1404 57.7095 41.911 57.7095 44.0955V61.897C57.7086 64.0814 59.4801 65.853 61.6646 65.853Z" fill="#DDE8ED"/>
<path d="M76.6035 52.9963C76.6035 56.0606 74.1196 58.5453 71.0544 58.5453C67.9902 58.5453 65.5063 56.0606 65.5063 52.9963C65.5063 49.9321 67.9902 47.4482 71.0544 47.4482C74.1196 47.4482 76.6035 49.9321 76.6035 52.9963Z" fill="#3D4159"/>
<path d="M81.2683 46.2012H114.614V50.9756H81.2683V46.2012Z" fill="#3D4159"/>
<path d="M81.2683 55.0168H114.614V59.7922H81.2683V55.0168Z" fill="#3D4159"/>
<path d="M117.881 75.8568C117.032 78.9723 115.935 81.9871 114.615 84.8793C114.406 85.337 114.194 85.7902 113.973 86.2407C113.302 87.6167 112.582 88.9644 111.811 90.2791C110.848 91.9224 109.81 93.5164 108.701 95.0544C107.165 97.1849 105.493 99.21 103.697 101.116H61.6653C59.4809 101.116 57.7075 99.3455 57.7075 97.1611V79.3586C57.7075 77.1742 59.4809 75.4036 61.6653 75.4036H116.042C116.706 75.4036 117.333 75.5684 117.881 75.8568Z" fill="#DDE8ED"/>
<path d="M76.6035 88.2598C76.6035 91.325 74.1196 93.8088 71.0544 93.8088C67.9902 93.8088 65.5063 91.325 65.5063 88.2598C65.5063 85.1955 67.9902 82.7117 71.0544 82.7117C74.1196 82.7117 76.6035 85.1955 76.6035 88.2598Z" fill="#3D4159"/>
<path d="M114.615 81.4653V84.8793C114.406 85.3371 114.194 85.7903 113.973 86.2407H81.2695V81.4653H114.615Z" fill="#3D4159"/>
<path d="M111.811 90.2791C110.848 91.9224 109.81 93.5164 108.701 95.0544H81.2695V90.2791H111.811Z" fill="#3D4159"/>
<path d="M71.9263 105.37V112.224C65.6321 115.795 58.6255 118.261 51.1759 119.355C41.1646 117.88 31.9562 113.932 24.1953 108.152C20.3977 105.323 16.9443 102.054 13.9121 98.4191C16.6505 90.064 24.1953 83.8824 33.281 83.1481C33.8834 83.0987 34.4913 83.074 35.1057 83.074H49.6259C51.3425 83.074 53.0125 83.2653 54.6165 83.6324C64.5307 85.9002 71.9263 94.7726 71.9263 105.37Z" fill="#DD3033"/>
<path d="M71.9263 105.37V118.814C68.072 119.591 64.0848 120 59.9998 120C57.8712 120 55.77 119.89 53.6982 119.672C42.71 118.526 32.6053 114.413 24.1953 108.152V105.37C24.1953 93.056 34.1801 83.074 46.4957 83.074H49.6259C55.0724 83.074 60.0638 85.0259 63.9356 88.2687V88.2705C66.2125 90.1766 68.1031 92.5277 69.4727 95.1919C71.0419 98.2433 71.9263 101.704 71.9263 105.37Z" fill="#F74F4F"/>
<path d="M20.5434 58.4848C20.5434 62.1671 17.8536 65.2213 14.3306 65.788C13.9452 65.8502 13.5497 65.8823 13.145 65.8823C9.05811 65.8823 5.74756 62.5717 5.74756 58.4848C5.74756 54.3979 9.05811 51.0864 13.145 51.0864C13.5497 51.0864 13.9452 51.1194 14.3306 51.1816C17.8536 51.7484 20.5434 54.8016 20.5434 58.4848Z" fill="#D3A489"/>
<path d="M48.3519 91.1187L42.3671 100.719L36.3813 91.1187" fill="#DDE8ED"/>
<path d="M47.6303 118.722C44.2603 118.016 40.9937 117.027 37.8589 115.78L42.3669 98.2214L47.6303 118.722Z" fill="#DDE8ED"/>
<path d="M20.5438 58.4848C20.5438 62.1671 17.8539 65.2213 14.331 65.788C13.691 63.4607 13.3486 61.0117 13.3486 58.4848C13.3486 55.957 13.6901 53.508 14.331 51.1816C17.8539 51.7484 20.5438 54.8016 20.5438 58.4848Z" fill="#BF8E75"/>
<path d="M15.7896 58.4846C15.7896 59.9449 14.6058 61.1287 13.1455 61.1287C11.6852 61.1287 10.5015 59.9449 10.5015 58.4846C10.5015 57.0244 11.6852 55.8406 13.1455 55.8406C14.6058 55.8406 15.7896 57.0244 15.7896 58.4846Z" fill="#BF8E75"/>
<path d="M42.3641 92.2018L32.3262 97.7801L29.2729 83.5766L35.5104 79.9026" fill="#DD3033"/>
<path d="M42.3645 92.2018L52.4033 97.7801L55.4565 83.5766L49.22 79.9026" fill="#DD3033"/>
<path d="M64.188 58.4848C64.188 62.1671 66.8787 65.2213 70.4017 65.788C70.7862 65.8502 71.1826 65.8823 71.5864 65.8823C75.6733 65.8823 78.9847 62.5717 78.9847 58.4848C78.9847 54.3979 75.6733 51.0864 71.5864 51.0864C71.1826 51.0864 70.7862 51.1194 70.4017 51.1816C66.8787 51.7484 64.188 54.8016 64.188 58.4848Z" fill="#D3A489"/>
<path d="M64.188 58.4848C64.188 62.1671 66.8787 65.2213 70.4017 65.788C71.0416 63.4607 71.3831 61.0117 71.3831 58.4848C71.3831 55.957 71.0416 53.508 70.4017 51.1816C66.8787 51.7484 64.188 54.8016 64.188 58.4848Z" fill="#BF8E75"/>
<path d="M74.2302 58.4849C74.2302 59.9451 73.0464 61.1289 71.5862 61.1289C70.1259 61.1289 68.9421 59.9451 68.9421 58.4849C68.9421 57.0246 70.1259 55.8408 71.5862 55.8408C73.0464 55.8408 74.2302 57.0246 74.2302 58.4849Z" fill="#BF8E75"/>
<path d="M69.8919 54.5527C69.8919 68.2499 59.8843 79.6134 46.7831 81.7228C45.3466 81.959 43.8708 82.078 42.3657 82.078C27.1624 82.078 14.8403 69.7551 14.8403 54.5527C14.8403 47.3594 20.0945 36.5617 24.6118 31.6581C29.6417 26.197 34.3557 27.0265 42.3657 27.0265C43.8708 27.0265 45.3466 27.1455 46.7831 27.3817C59.8843 29.492 69.8919 40.8546 69.8919 54.5527Z" fill="#BF8E75"/>
<path d="M50.3207 74.4844V84.2476C50.3207 87.8218 47.9641 90.843 44.7186 91.8464C43.9752 92.0762 43.1832 92.2017 42.3638 92.2017C37.9711 92.2017 34.4106 88.6403 34.4106 84.2476V74.4844H50.3207Z" fill="#BF8E75"/>
<path d="M50.3208 83.6287V84.2476C50.3208 87.8218 47.9642 90.843 44.7187 91.8464C41.7899 90.9456 39.5872 88.3995 39.1807 85.283C39.7126 85.316 40.2463 85.3325 40.7838 85.3325C42.2889 85.3325 43.7638 85.2125 45.2012 84.9763C46.9718 84.6925 48.6829 84.2366 50.3208 83.6287Z" fill="#D3A489"/>
<path d="M69.8925 54.5526C69.8925 68.2498 59.8849 79.6133 46.7837 81.7227C33.6825 79.6133 23.6758 68.2498 23.6758 54.5526C23.6758 46.1179 27.4697 38.5684 33.4472 33.5184C37.1734 30.3671 41.751 28.1927 46.7837 27.3816C58.9987 29.3472 68.5256 39.3604 69.7561 51.8079C69.8458 52.7106 69.8925 53.6279 69.8925 54.5526Z" fill="#D3A489"/>
<path d="M42.3659 69.3337C40.0606 69.3337 37.7563 68.756 35.6551 67.6016C35.0628 67.2756 34.8467 66.5313 35.1717 65.938C35.4986 65.3457 36.2429 65.1296 36.8352 65.4556C40.2987 67.3589 44.4341 67.3589 47.8966 65.4556C48.489 65.1296 49.2333 65.3457 49.5592 65.938C49.8861 66.5313 49.6691 67.2756 49.0768 67.6016C46.9756 68.756 44.6703 69.3337 42.3659 69.3337Z" fill="#BF8E75"/>
<path d="M36.5041 52.9503C36.5041 54.6751 35.1061 56.0722 33.3821 56.0722C31.6573 56.0722 30.2593 54.6751 30.2593 52.9503C30.2593 51.2254 31.6573 49.8274 33.3821 49.8274C35.1061 49.8274 36.5041 51.2254 36.5041 52.9503Z" fill="#3D4159"/>
<path d="M54.4728 52.9503C54.4728 54.6751 53.0748 56.0722 51.3509 56.0722C49.626 56.0722 48.228 54.6751 48.228 52.9503C48.228 51.2254 49.626 49.8274 51.3509 49.8274C53.0748 49.8274 54.4728 51.2254 54.4728 52.9503Z" fill="#3D4159"/>
<path d="M35.868 52.3994C35.868 53.1382 35.2683 53.7369 34.5295 53.7369C33.7906 53.7369 33.1919 53.1382 33.1919 52.3994C33.1919 51.6605 33.7906 51.0618 34.5295 51.0618C35.2683 51.0618 35.868 51.6605 35.868 52.3994Z" fill="white"/>
<path d="M53.9899 52.3994C53.9899 53.1382 53.3911 53.7369 52.6523 53.7369C51.9135 53.7369 51.3147 53.1382 51.3147 52.3994C51.3147 51.6605 51.9135 51.0618 52.6523 51.0618C53.3911 51.0618 53.9899 51.6605 53.9899 52.3994Z" fill="white"/>
<path d="M45.4892 60.8119H39.2444C38.5001 60.8119 37.8967 60.2086 37.8967 59.4651C37.8967 58.7208 38.5001 58.1184 39.2444 58.1184H45.4892C46.2326 58.1184 46.8359 58.7208 46.8359 59.4651C46.8359 60.2086 46.2326 60.8119 45.4892 60.8119Z" fill="#BF8E75"/>
<path d="M51.4292 104.637H63.429V108.311H51.4292V104.637Z" fill="#DD3033"/>
<path d="M40.7559 19.163C49.0936 19.759 55.7888 26.4946 56.2136 34.9742L56.2924 36.5654H61.0879L63.6724 53.7452L69.9301 51.808L69.0896 34.9742C68.6456 26.0679 61.2792 19.087 52.3638 19.12L40.7559 19.163Z" fill="#2A2F4F"/>
<path d="M68.559 12.5198C75.1984 19.1592 75.1984 29.9249 68.559 36.5652C61.9187 43.2046 51.153 43.2046 44.5127 36.5652L68.559 12.5198Z" fill="#3D4159"/>
<path d="M44.5131 36.5645H23.6454L21.0609 53.7452L14.8042 51.8089L15.6437 34.9733C16.0869 26.0688 23.4541 19.0861 32.3704 19.12L62.5078 19.2326L66.493 26.4048" fill="#3D4159"/>
<path d="M43.9764 19.163C35.6387 19.759 28.9435 26.4946 28.5187 34.9742L28.4399 36.5654H23.6435L21.0599 53.7452L14.8022 51.808L15.6427 34.9742C16.0867 26.0679 23.4531 19.087 32.3685 19.12L43.9764 19.163Z" fill="#2A2F4F"/>
<path d="M61.6646 32.059H116.043C118.229 32.059 119.999 30.2874 119.999 28.103V10.3015C119.999 8.117 118.229 6.34546 116.043 6.34546H61.6646C59.4801 6.34546 57.7095 8.117 57.7095 10.3015V28.103C57.7086 30.2874 59.4801 32.059 61.6646 32.059Z" fill="#DDE8ED"/>
<path d="M76.6035 19.2021C76.6035 22.2664 74.1196 24.7511 71.0544 24.7511C67.9902 24.7511 65.5063 22.2664 65.5063 19.2021C65.5063 16.1378 67.9902 13.6531 71.0544 13.6531C74.1196 13.6531 76.6035 16.1378 76.6035 19.2021Z" fill="#3D4159"/>
<path d="M81.2683 12.4065H114.614V17.1819H81.2683V12.4065Z" fill="#3D4159"/>
<path d="M81.2683 21.2219H114.614V25.9973H81.2683V21.2219Z" fill="#3D4159"/>
</svg>
