<svg width="120" height="120" viewBox="0 0 120 120" fill="none" xmlns="http://www.w3.org/2000/svg">
<path d="M120 60C120 75.4459 114.162 89.5322 104.572 100.166C93.5898 112.344 77.6889 120 60 120C42.3111 120 26.4102 112.344 15.4285 100.166C5.83832 89.5322 0 75.4459 0 60C0 44.5541 5.83832 30.4678 15.4285 19.834C17.6028 17.4197 19.9713 15.1859 22.511 13.1534C23.2947 12.5244 24.093 11.9147 24.9088 11.3269C30.3506 7.39563 36.4755 4.35699 43.0728 2.42249C48.4406 0.845032 54.1196 0 60 0C65.8804 0 71.5594 0.845032 76.9272 2.42249C87.7148 5.58655 97.2418 11.7014 104.572 19.834C114.162 30.4678 120 44.5541 120 60Z" fill="white"/>
<path d="M94.433 2.42249H25.5698C19.9686 2.42249 15.4285 6.96259 15.4285 12.561V100.166C26.4102 112.344 42.3111 120 60 120C77.6889 120 93.5898 112.344 104.572 100.166V12.561C104.572 6.96259 100.033 2.42249 94.433 2.42249Z" fill="#DDE8ED"/>
<path d="M91.2717 45.8707C91.2717 63.1787 77.2403 77.2092 59.9323 77.2092C42.6242 77.2092 28.5938 63.1787 28.5938 45.8707C28.5938 28.5626 42.6242 14.5312 59.9323 14.5312C77.2403 14.5312 91.2717 28.5626 91.2717 45.8707Z" fill="#FCF9F4"/>
<path d="M26.6538 89.2063H93.3445V93.9808H26.6538V89.2063Z" fill="#3D4159"/>
<path d="M26.6538 101.45H93.3445V106.226H26.6538V101.45Z" fill="#3D4159"/>
<path d="M60 30.7031L64.3161 39.9969L74.4888 41.2298L66.9836 48.2066L68.9545 58.2624L60 53.2805L51.0455 58.2624L53.0164 48.2066L45.5112 41.2298L55.6839 39.9969L60 30.7031Z" fill="#F2CD1D"/>
</svg>
