<svg width="16" height="16" viewBox="0 0 16 16" fill="none" xmlns="http://www.w3.org/2000/svg">
<path d="M13.84 6.71385C13.8598 4.45802 11.8868 2.39004 9.44199 2.10407C9.39337 2.09845 9.34039 2.08992 9.28433 2.08085C9.16328 2.06132 9.03813 2.04126 8.91185 2.04126C8.41079 2.04126 8.27685 2.38401 8.24158 2.58845C8.20727 2.7872 8.24001 2.95411 8.33862 3.08477C8.50456 3.30449 8.79652 3.34349 9.03104 3.37477C9.09978 3.38402 9.16463 3.39261 9.21893 3.40449C11.4155 3.88246 12.1551 4.6339 12.5166 6.75476C12.5254 6.80657 12.5294 6.87045 12.5336 6.93816C12.5494 7.1917 12.5822 7.71914 13.1646 7.71914H13.1646C13.2131 7.71914 13.2652 7.71508 13.3194 7.70701C13.8617 7.62676 13.8447 7.14463 13.8365 6.91298C13.8342 6.84773 13.832 6.78601 13.8377 6.74498C13.8392 6.73463 13.84 6.72423 13.84 6.71385Z" fill="white"/>
<path d="M8.7697 1.27645C8.83475 1.28101 8.89636 1.28538 8.94764 1.29304C12.5546 1.83323 14.2134 3.49743 14.6731 7.03742C14.6809 7.0976 14.6821 7.17098 14.6834 7.2487C14.688 7.52526 14.6974 8.10064 15.332 8.11255L15.3517 8.11274C15.5507 8.11274 15.709 8.0543 15.8222 7.93892C16.0197 7.73773 16.0059 7.43886 15.9948 7.19864C15.9921 7.1397 15.9895 7.0842 15.9901 7.0356C16.036 3.41511 12.8178 0.132063 9.10328 0.0100001C9.08788 0.00950006 9.07318 0.0103126 9.05832 0.0123438C9.05104 0.0133751 9.03749 0.0146876 9.01433 0.0146876C8.97729 0.0146876 8.93172 0.0115626 8.8834 0.00837505C8.82496 0.00446878 8.75872 0 8.69159 0C8.10003 0 7.98759 0.40944 7.97321 0.653504C7.94003 1.2176 8.5004 1.25729 8.7697 1.27645Z" fill="white"/>
<path d="M14.4988 11.6125C14.4221 11.5555 14.3428 11.4964 14.2686 11.4382C13.8748 11.1296 13.4558 10.8451 13.0506 10.57C12.9665 10.5129 12.8824 10.4558 12.7986 10.3986C12.2796 10.0436 11.813 9.87102 11.3721 9.87102C10.7783 9.87102 10.2606 10.1905 9.83334 10.8205C9.64403 11.0998 9.41436 11.2356 9.13132 11.2356C8.96397 11.2356 8.77377 11.1891 8.56614 11.0973C6.89079 10.3575 5.69449 9.2232 5.01042 7.72588C4.67973 7.00219 4.78694 6.52916 5.36893 6.14415C5.69943 5.92572 6.31461 5.51906 6.27103 4.74033C6.22168 3.85602 4.21801 1.19516 3.37377 0.892966C3.01635 0.764965 2.64079 0.763778 2.25554 0.889997C1.285 1.20772 0.588536 1.76569 0.241253 2.50348C-0.09435 3.21639 -0.0792033 4.05345 0.285088 4.92421C1.33817 7.44179 2.81873 9.6368 4.68582 11.4481C6.51338 13.2213 8.75959 14.6737 11.362 15.7649C11.5966 15.8632 11.8426 15.9168 12.0223 15.9559C12.0835 15.9693 12.1363 15.9808 12.1749 15.9911C12.1961 15.9967 12.2179 15.9997 12.2398 15.9999L12.2604 16C12.2604 16 12.2604 16 12.2605 16C13.4845 16 14.9542 14.9108 15.4056 13.669C15.801 12.5818 15.079 12.0443 14.4988 11.6125Z" fill="white"/>
<path d="M9.31103 4.15205C9.10148 4.1572 8.66534 4.16773 8.51233 4.6003C8.44073 4.80242 8.4493 4.97793 8.53784 5.12193C8.66774 5.33321 8.91667 5.39796 9.14307 5.43349C9.96414 5.5618 10.3858 6.00393 10.4701 6.82481C10.5093 7.20756 10.774 7.47485 11.1138 7.47485H11.1139C11.139 7.47485 11.1647 7.47341 11.1903 7.47038C11.599 7.42303 11.7971 7.13059 11.7792 6.60131C11.7858 6.0489 11.4889 5.42177 10.984 4.92224C10.4773 4.42117 9.86655 4.13898 9.31103 4.15205Z" fill="white"/>
</svg>
